<svg xmlns="http://www.w3.org/2000/svg" xmlns:xlink="http://www.w3.org/1999/xlink" width="621.162" height="425.232" viewBox="0 0 621.162 425.232"><defs><linearGradient id="a" x1="0.481" y1="-0.588" x2="0.501" y2="0.605" gradientUnits="objectBoundingBox"><stop offset="0" stop-color="#010101" stop-opacity="0"/><stop offset="0.95" stop-color="#010101"/></linearGradient><linearGradient id="b" x1="0.465" y1="-1.639" x2="0.612" y2="7.488" xlink:href="#a"/><linearGradient id="c" x1="0.49" y1="-0.679" x2="0.522" y2="3.715" xlink:href="#a"/><linearGradient id="d" x1="0.494" y1="-1.035" x2="0.515" y2="4.222" xlink:href="#a"/><linearGradient id="e" x1="0.532" y1="-2.23" x2="0.414" y2="6.861" xlink:href="#a"/><linearGradient id="f" x1="29.167" y1="0.498" x2="30.158" y2="0.498" gradientUnits="objectBoundingBox"><stop offset="0" stop-color="#e4c5d5"/><stop offset="0.42" stop-color="#e9d3cf"/><stop offset="1" stop-color="#efe8ca"/></linearGradient><linearGradient id="g" x1="7.725" y1="0.499" x2="8.731" y2="0.499" xlink:href="#f"/><linearGradient id="h" x1="0" y1="0.5" x2="1" y2="0.5" xlink:href="#a"/><linearGradient id="i" x1="7.549" y1="0.5" x2="8.549" y2="0.5" xlink:href="#f"/><linearGradient id="j" x1="5.926" y1="0.5" x2="6.926" y2="0.5" xlink:href="#f"/><linearGradient id="k" x1="-0.077" y1="0.771" x2="2.435" y2="-0.18" xlink:href="#a"/><linearGradient id="l" x1="0.976" y1="-0.496" x2="-0.744" y2="3.121" xlink:href="#a"/><linearGradient id="m" x1="3.218" y1="0.501" x2="4.218" y2="0.501" xlink:href="#f"/><linearGradient id="n" x1="-0.299" y1="0.556" x2="0.796" y2="0.479" xlink:href="#a"/><linearGradient id="o" x1="-0.001" y1="0.5" x2="0.999" y2="0.5" xlink:href="#f"/><linearGradient id="p" x1="-0.001" y1="0.5" x2="1" y2="0.5" xlink:href="#f"/><linearGradient id="q" x1="0.372" y1="0.573" x2="0.94" y2="0.397" xlink:href="#a"/><linearGradient id="r" x1="0.218" y1="0.252" x2="0.601" y2="0.555" xlink:href="#a"/><linearGradient id="s" x1="0.001" y1="0.5" x2="1" y2="0.5" xlink:href="#f"/><linearGradient id="t" x1="0.075" y1="1.477" x2="1.546" y2="-1.953" xlink:href="#a"/><linearGradient id="u" x1="0.001" y1="0.501" x2="0.999" y2="0.501" xlink:href="#f"/><linearGradient id="v" x1="-0.003" y1="0.501" x2="0.998" y2="0.501" xlink:href="#f"/><linearGradient id="w" x1="0" y1="0.504" x2="1" y2="0.504" xlink:href="#f"/><linearGradient id="x" x1="0.855" y1="0.5" x2="0.243" y2="0.5" xlink:href="#a"/><linearGradient id="y" x1="1.497" y1="0.457" x2="-5.908" y2="0.772" xlink:href="#a"/><linearGradient id="z" x1="0.428" y1="0.845" x2="1.001" y2="-1.552" xlink:href="#a"/><linearGradient id="aa" x1="0.906" y1="0.718" x2="0.276" y2="0.45" xlink:href="#a"/><linearGradient id="ac" x1="0" y1="0.5" x2="0.996" y2="0.5" xlink:href="#a"/><linearGradient id="ad" x1="1.465" y1="0.313" x2="-1.731" y2="0.969" xlink:href="#a"/><linearGradient id="ae" x1="-0.094" y1="0.176" x2="3.741" y2="2.142" xlink:href="#a"/><linearGradient id="af" x1="-0.001" y1="0.5" x2="1.001" y2="0.5" xlink:href="#a"/><linearGradient id="ag" x1="0.741" y1="0.552" x2="-0.756" y2="0.226" xlink:href="#a"/><linearGradient id="ah" x1="0.828" y1="-0.45" x2="0.144" y2="1.7" xlink:href="#f"/><linearGradient id="ai" x1="0.308" y1="0.777" x2="1.345" y2="-0.752" xlink:href="#a"/></defs><g transform="translate(0.002 0.002)"><path d="M620.021,392.711c-5.934,25.411-23.1,48.4-46.645,59.7-55.452,26.6-126.4-14.824-181.274,12.878-17.9,9.068-32.105,24.83-50.775,32.165-14.385,5.65-30.254,5.84-45.719,5.934-48.259.332-98.892.107-141.24-22.99-19.75-10.765-36.6-25.957-52.923-41.458-9.5-9.115-19.073-18.492-28.189-28.189q-6.587-6.92-12.842-14.136c-20.771-23.987-38.55-50.146-49.292-79.842C-6.243,268.693-.83,209.17,36.486,174.157c13.507-12.7,30.183-21.435,46.669-29.957C134.369,117.815,187,91.834,243.883,82.79c49.849-7.964,105.716-5.234,154.9,5.934,38.752,8.854,77.718,2.92,116.315,12.213,33.435,8.083,65.386,28.557,79.89,59.772,15.346,33.031,9.187,71.475,12.842,107.71C611.974,310.163,629.54,351.858,620.021,392.711Z" transform="translate(-1.65 -78.22)" fill="#e4572e" opacity="0.24"/><path d="M445.18,302.731a34.96,34.96,0,0,1,6.86,2.1c5.721,2.184,11.442,4.5,17.447,5.626s12.451,1.021,18.017-1.519a22.242,22.242,0,0,0,10.457-9.994.855.855,0,0,0,.13-.665.878.878,0,0,0-.522-.415l-13.519-5.6a63.258,63.258,0,0,0-10.2-3.561,61.528,61.528,0,0,0-13.625-1.056,71.534,71.534,0,0,0-14.243,1,25.1,25.1,0,0,0-12.664,6.243,8.854,8.854,0,0,0-2.374,3.679c-1.044,3.7,1.317,4.012,4.2,3.976C438.451,302.505,441.845,302.149,445.18,302.731Z" transform="translate(78.536 -39.086)" fill="#606161"/><path d="M445.18,302.731a34.96,34.96,0,0,1,6.86,2.1c5.721,2.184,11.442,4.5,17.447,5.626s12.451,1.021,18.017-1.519a22.242,22.242,0,0,0,10.457-9.994.855.855,0,0,0,.13-.665.878.878,0,0,0-.522-.415l-13.519-5.6a63.258,63.258,0,0,0-10.2-3.561,61.528,61.528,0,0,0-13.625-1.056,71.534,71.534,0,0,0-14.243,1,25.1,25.1,0,0,0-12.664,6.243,8.854,8.854,0,0,0-2.374,3.679c-1.044,3.7,1.317,4.012,4.2,3.976C438.451,302.505,441.845,302.149,445.18,302.731Z" transform="translate(78.536 -39.086)" opacity="0.37" fill="url(#a)"/><path d="M462.2,356.461c-11.774,0-24.189,1.59-33.613,8.652a3.311,3.311,0,0,0-1.187,1.246c-.819,1.863,1.721,3.347,3.7,3.751,9.649,1.958,19.572,2.065,29.411,2.172,6.041.059,44.936.855,42.265-10.991C500.909,352.853,468.163,356.461,462.2,356.461Z" transform="translate(77.891 -26.362)" opacity="0.37" fill="url(#b)"/><path d="M332,359.707c-13.376.843-28.046-.273-38.811,7.715-1.6,1.187-3.181,2.8-3.216,4.748-.059,3.857,5.056,5.2,8.914,5.317,31.168.949,62.822,1.84,93.017-5.935,2.5-.641,5.353-1.674,6.148-4.13.712-2.16-.534-4.463-1.923-6.255C379.331,339.554,353.849,358.342,332,359.707Z" transform="translate(52.235 -27.27)" opacity="0.37" fill="url(#c)"/><path d="M186.164,365.659c-16.83-1.4-34.42-4.035-50.122,2.208-.32,4.439,5.578,6.207,10.017,6.457l71.095,4.012c21.969,1.187,44.295,2.445,65.73-2.552,2.374-.558,5.424-2.291,4.593-4.617a4.143,4.143,0,0,0-1.887-1.911c-13.744-8.451-29.162-5.115-44.057-3.774a320.667,320.667,0,0,1-55.369.178Z" transform="translate(23.465 -24.867)" opacity="0.37" fill="url(#d)"/><path d="M148.822,353.63c-8.783,3.727-20.177,2.374-29.518,3.062-12.961.926-25.684,3.952-38.669,4.463a8.01,8.01,0,0,1-2.623-.142q-6.587-6.92-12.842-14.136c5.614-2.8,12.249-2.659,18.563-2.374,19.964.855,40.069,2.433,59.807,1.033C150.626,345.12,159.219,349.238,148.822,353.63Z" transform="translate(10.222 -28.48)" opacity="0.37" fill="url(#e)"/><path d="M167.022,361.658c3.442-1.721,7.382-1.389,11.157-1.033a2.433,2.433,0,0,1,1.567.534,3.264,3.264,0,0,1,.748,1.579q.819,2.967,1.46,5.934a3.869,3.869,0,0,1-.083,2.671,2.6,2.6,0,0,1-1.187.926c-2.647,1.317-5.638,1.389-8.546,1.436l-15.216.261a9.7,9.7,0,0,1-4.38-.617,4.415,4.415,0,0,1-2.552-3.893c0-2.113,1.8-3.561,3.5-4.261a23.2,23.2,0,0,1,7.572-1.377C163.331,363.735,165.016,362.666,167.022,361.658Z" transform="translate(26.074 -25.494)" fill="#606161"/><path d="M175.271,362.324a3.561,3.561,0,0,1-1,1.9,4.546,4.546,0,0,1-3.074.712,3.216,3.216,0,0,1-1.638-.32,2.374,2.374,0,0,1-.878-1.033,10.457,10.457,0,0,1-.558-5.65,1.044,1.044,0,0,1,.19-.605.819.819,0,0,1,.451-.225c1.389-.4,4.57-.855,5.816.19S175.579,360.97,175.271,362.324Z" transform="translate(29.433 -26.183)" fill="url(#f)"/><path d="M246.141,352.2a28.489,28.489,0,0,1,3.252,2.457,3.561,3.561,0,0,1,1,1.187,3.1,3.1,0,0,1,.19,1.4,10.017,10.017,0,0,1-2.611,5.59c-1.341,1.6-2.908,3.015-4.154,4.748s-2.136,3.561-3.774,4.748a11.868,11.868,0,0,1-4.166,1.638c-2.825.7-5.934,1.329-8.581.178a1.4,1.4,0,0,1-.582-.392,1.436,1.436,0,0,1-.2-.807,6.789,6.789,0,0,1,2.374-5.246c1.911-1.6,4.676-2.1,6.243-4.047a7.537,7.537,0,0,0,1.4-4.024,6.457,6.457,0,0,1,.724-3.05,7.2,7.2,0,0,1,2.374-1.792,11.869,11.869,0,0,0,2.848-2.706C243.578,350.923,245.026,351.469,246.141,352.2Z" transform="translate(40.375 -27.162)" fill="#606161"/><path d="M239.388,357.3a5.625,5.625,0,0,1-2.374.32,3.63,3.63,0,0,1-.878-.107,2.9,2.9,0,0,1-1.555-1.733,13.566,13.566,0,0,1-.949-2.789c-.677-3,3.395-6.006,6.053-4.166S242.854,355.819,239.388,357.3Z" transform="translate(41.692 -27.75)" fill="url(#g)"/><path d="M181.609,312.476a26.042,26.042,0,0,0-3.288,6.575,28.344,28.344,0,0,0-.7,8.213l.487,44.295a7.928,7.928,0,0,1-.878,4.57c-1.65,2.374-7.264,3.561-9.056,1.246s-6.765-35.915-8.308-54.989c-.463-5.638-.9-11.394.285-16.9,1.555-7.193,27.3-49.612,32.177-48.924s21.637,2.528,24.035,7.216c3.122,6.112-7.952,12.237-11.691,16.759a303.31,303.31,0,0,0-23.061,31.939Z" transform="translate(27.83 -44.891)" fill="#606161"/><path d="M181.609,312.476a26.042,26.042,0,0,0-3.288,6.575,28.344,28.344,0,0,0-.7,8.213l.487,44.295a7.928,7.928,0,0,1-.878,4.57c-1.65,2.374-7.264,3.561-9.056,1.246s-6.765-35.915-8.308-54.989c-.463-5.638-.9-11.394.285-16.9,1.555-7.193,27.3-49.612,32.177-48.924s21.637,2.528,24.035,7.216c3.122,6.112-7.952,12.237-11.691,16.759a303.31,303.31,0,0,0-23.061,31.939Z" transform="translate(27.83 -44.891)" opacity="0.37" fill="url(#h)"/><path d="M173.04,212.551a6.682,6.682,0,0,1,3.169,2.611,7.038,7.038,0,0,1,.166,4.664,5.032,5.032,0,0,1-1.27,2.849,4.748,4.748,0,0,1-3.489.831,23.738,23.738,0,0,1-12.9-4.748c-4.748-3.62-8.012-8.9-12.462-12.925-1.341-1.187-2.932-2.659-2.682-4.451a17.067,17.067,0,0,1,1.246-2.884,7.513,7.513,0,0,0-.427-4.51L143.13,190c2.374.807,3.1,4.071,5.294,5.377a2.03,2.03,0,0,0,2.255.059c.748-.605.807-1.982,1.745-2.2,1.341,1.282.131,3.679.961,5.329.32.641.926,1.116,1.187,1.792a5.508,5.508,0,0,1,0,2.291c-.166,3.323,5.377,4.748,7.786,5.673C165.954,209.726,169.61,210.877,173.04,212.551Z" transform="translate(24.792 -57.329)" fill="url(#i)"/><path d="M231.251,225.712c-5.282,11.988-1.365,25.862-2.374,39a1.59,1.59,0,0,1,0,.4,40.353,40.353,0,0,1-.772,5.2c-.748,3.359-2.184,6.943-5.282,8.451a7.5,7.5,0,0,1-4.13.7c-2.374-.178-7.382-4.831-9.555-5.934-6.385-3.288-10.041-3.81-17.127-5.1-2.208-.4-4.605-.582-6.385-1.982-2.5-1.958-2.837-5.721-1.946-8.819s2.694-5.792,3.8-8.783a21.6,21.6,0,0,0,1.068-4.178,20.433,20.433,0,0,0,.368-2.73,47.476,47.476,0,0,0-.142-7.56c-.154-1.84-.368-3.691-.558-5.531a71.676,71.676,0,0,1-.439-7.94,7.252,7.252,0,0,1,0-.878,12.356,12.356,0,0,1,1.068-4.878c2.219-4.356,7.786-5.6,12.617-5.792s8.747-.368,13.246-1.958a17.329,17.329,0,0,1,12.735.3c3.691,1.555,6.789,5.056,6.825,9.044C234.349,219.908,232.509,222.757,231.251,225.712Z" transform="translate(32.287 -54.277)" fill="#e4572e"/><path d="M192.134,201.512c.688,2.3,1.59,4.843,3.739,5.934,1.65.807,3.9.665,4.973,2.16.427.582.617,5.234,1.187,5.685a2.9,2.9,0,0,0,1.638.463c2.813.2,5.626-3.881,8.379-4.463a2.932,2.932,0,0,0,1.828-.9,3.086,3.086,0,0,0,.451-1.567l1.4-14.243c.309-3.074.558-6.4-1.009-9.056a11.608,11.608,0,0,0-5.092-4.225,15.1,15.1,0,0,0-5.317-1.614c-4.878-.4-9.875,2.9-10.172,7.893a8.89,8.89,0,0,1-2.041,5.934C189.938,196.23,191.173,198.355,192.134,201.512Z" transform="translate(33.72 -59.263)" fill="url(#j)"/><path d="M196.236,178.316a5,5,0,0,1,5.5-1.994c.392.142.819.332,1.187.131a2.3,2.3,0,0,0,.487-.475,3.122,3.122,0,0,1,2.932-.439,18.077,18.077,0,0,1,9.768,5.139,10.516,10.516,0,0,1,2.374,10.409c-.807,2.148-2.492,4.024-2.623,6.314,0,.938.166,1.887.142,2.825a2.754,2.754,0,0,1-1.187,2.433,2.457,2.457,0,0,1-2.991-.938,7.122,7.122,0,0,1-1.021-3.228,1.08,1.08,0,0,1,.071-.748,1.305,1.305,0,0,1,.653-.392,3.335,3.335,0,0,0,1.46-4.748,1.722,1.722,0,0,0-2.208-.712c-.7.475-.605,1.187-.914,1.78s-1.353.926-1.567.285a1.08,1.08,0,0,1,0-.582,11.453,11.453,0,0,0,.5-3.027,2.943,2.943,0,0,0-1.412-2.564,5.5,5.5,0,0,0-2.113-.344,9.222,9.222,0,0,1-7.2-4.581c-.095-.178-2.374,2.374-2.943,0a6.243,6.243,0,0,1,1.116-4.546Z" transform="translate(34.496 -60.066)" fill="#606161"/><path d="M228.169,260.333a1.59,1.59,0,0,1,0,.4,40.347,40.347,0,0,1-.771,5.2c-.748,3.359-2.184,6.943-5.282,8.451a7.5,7.5,0,0,1-4.13.7,2.481,2.481,0,0,1-1.1-2.136c-.083-2.03,1.282-4.617,1.7-6.611a50.811,50.811,0,0,0,1.068-9.187,56.411,56.411,0,0,0-.653-10.492,2.16,2.16,0,0,0-.3-.961c-.475-.7-1.507-.7-2.374-.617a62.241,62.241,0,0,1-26.6-3.762,4.973,4.973,0,0,1-1.887-1.08,1.685,1.685,0,0,1-.558-1.329,1.887,1.887,0,0,1,.926-1.4,1.544,1.544,0,0,1,.4-.249,7.37,7.37,0,0,1,2.219-.3l16.711-.119a11.192,11.192,0,0,0,5.388-.914,24.925,24.925,0,0,0,2.955-2.255c2.765-2.172,6.338-3.062,9.78-3.834a.4.4,0,0,1,.475,0,.392.392,0,0,1,.142.332A174.081,174.081,0,0,1,228.169,260.333Z" transform="translate(33.043 -49.897)" opacity="0.37" fill="url(#k)"/><path d="M195.486,222.854a3.822,3.822,0,0,0-.748,1.294c-1.187,2.516-2.73,7.454-3.027,6.35a8.94,8.94,0,0,0-.807-2.1c-1.365-2.481-3.561-2.623-5.234-2.849a96.5,96.5,0,0,1-12-2.611,10.683,10.683,0,0,1-2.991-1.258,4.51,4.51,0,0,1-1.068-1.1,6.516,6.516,0,0,1-.7-3.252,36.8,36.8,0,0,1,.4-6.053,2.445,2.445,0,0,1,.522-1.329,2.54,2.54,0,0,1,1.543-.546c7.121-.819,12.035-1.187,32.806-.487C211.164,209.169,199.129,219.424,195.486,222.854Z" transform="translate(29.609 -53.864)" fill="#e4572e"/><path d="M195.576,230.549c0,1.246-.225,2.765-1.365,3.276a2.433,2.433,0,0,1-2.813-1.068,1.448,1.448,0,0,1-.214-.4c-.154-1.84-.368-3.691-.558-5.531-1.365-2.481-3.561-2.623-5.234-2.849a96.506,96.506,0,0,1-12-2.611A10.683,10.683,0,0,1,170.4,220.1a2.086,2.086,0,0,1,0-.487c.071-1.733,1.116-2.314,2.694-2.5,4.581-.51,9.816.439,14.433.593a9.638,9.638,0,0,1,2.73.3,1.97,1.97,0,0,1,.439.107,6.884,6.884,0,0,1,3.8,4.463,14.657,14.657,0,0,1,.819,3.288A40.746,40.746,0,0,1,195.576,230.549Z" transform="translate(29.886 -52.289)" opacity="0.37" fill="url(#l)"/><path d="M230.121,220.663a48.364,48.364,0,0,1-.249,5.08,21.791,21.791,0,0,1-6.231,13.056,18.136,18.136,0,0,1-13.293,5.234,4.227,4.227,0,0,1-1.389-.249,3.869,3.869,0,0,1-1.65-1.673c-1.579-2.718-1.769-6.006-1.923-9.151a6.943,6.943,0,0,1,.154-2.374,7.288,7.288,0,0,1,2.659-3.11,48.106,48.106,0,0,0,6.48-6.433,39.168,39.168,0,0,1,5.567-6.148c1.792-1.4,5.519-3.216,7.762-1.8S230.157,218.443,230.121,220.663Z" transform="translate(36.42 -53.109)" fill="#e4572e"/><path d="M184.672,229.206a25.792,25.792,0,0,1-5.246-.392,18.566,18.566,0,0,1-4.225-1.531,31.821,31.821,0,0,1-4.617-2.754c-.475.487-.142,1.306.332,1.78s1.1.843,1.329,1.472a.558.558,0,0,1,0,.439c-.119.225-.451.237-.724.2l-10.172-1.068a2.469,2.469,0,0,0,1.662,1.721,7.406,7.406,0,0,1,2.243,1.08c1.1,1,1.08,2.682,1.46,4.119a7.537,7.537,0,0,0,4.237,4.748,9.65,9.65,0,0,0,6.48.368c.961-.273,1.887-.676,2.86-.914a17.543,17.543,0,0,1,7.193.273c8.023,1.46,16.094,3.086,24.26,2.967,1.863,0,3.881-.214,5.27-1.448,2.718-2.374,3.288-9.851-1.08-10.753-2.849-.582-6.089-.19-8.985-.2l-10.492-.071Z" transform="translate(28.197 -50.875)" fill="url(#m)"/><path d="M213.185,314.137a10.753,10.753,0,0,0-.249,4.3c.475,2.219,2.267,3.869,3.929,5.412a154.439,154.439,0,0,1,30.646,39.345,5.365,5.365,0,0,1,.914,3,5.519,5.519,0,0,1-1.97,3.1l-3.11,3.05a3.062,3.062,0,0,1-2.374,1.187,3,3,0,0,1-1.329-.76,314.141,314.141,0,0,1-38.17-37.9c-2.967-3.5-5.934-7.181-7.347-11.537a38.206,38.206,0,0,1-1.389-10.967L192.3,297.39c-.249-8.6-.475-17.329,1.507-25.72.558-2.374,1.294-4.676,2.03-7,.261-.8.546-3.383,1.187-3.857a3.668,3.668,0,0,1,1.887-.439c7.584-.237,22.776,4.973,21.8,14.694C219.487,288.073,215.713,301.307,213.185,314.137Z" transform="translate(33.95 -44.178)" fill="#606161"/><path d="M213.185,314.137a10.753,10.753,0,0,0-.249,4.3c.475,2.219,2.267,3.869,3.929,5.412a154.439,154.439,0,0,1,30.646,39.345,5.365,5.365,0,0,1,.914,3,5.519,5.519,0,0,1-1.97,3.1l-3.11,3.05a3.062,3.062,0,0,1-2.374,1.187,3,3,0,0,1-1.329-.76,314.141,314.141,0,0,1-38.17-37.9c-2.967-3.5-5.934-7.181-7.347-11.537a38.206,38.206,0,0,1-1.389-10.967L192.3,297.39c-.249-8.6-.475-17.329,1.507-25.72.558-2.374,1.294-4.676,2.03-7,.261-.8.546-3.383,1.187-3.857a3.668,3.668,0,0,1,1.887-.439c7.584-.237,22.776,4.973,21.8,14.694C219.487,288.073,215.713,301.307,213.185,314.137Z" transform="translate(33.95 -44.178)" opacity="0.37" fill="url(#n)"/><path d="M211.107,204.248a3.335,3.335,0,0,1,3.074-.427,2.3,2.3,0,0,1,.748,2.694A8.237,8.237,0,0,1,213.255,209c-2.837,3.383-4.937,7.691-8.925,9.578-.083,0-.831-4.344-.914-4.748-.261-1.258-1.875-3.193-1.507-4.38s2.671-1.9,3.644-2.374Z" transform="translate(35.767 -54.783)" fill="#f4f4f6"/><path d="M437.271,312.608c1.638,4.285,4.748,7.786,7.881,11.181l28.592,31.429a2.031,2.031,0,0,0,.866.653,1.591,1.591,0,0,0,1.5-.558c1.78-1.863.7-4.926-.534-7.2A177.181,177.181,0,0,0,451.834,314.2a22.8,22.8,0,0,1-4.166-5.721,10.8,10.8,0,0,1-.237-7.964c.783-2.16,2.172-4.89.463-6.445a4.023,4.023,0,0,0-1.887-.807c-3.656-.76-8.38-.451-9.685,3.489C434.9,301.321,435.574,308.229,437.271,312.608Z" transform="translate(79.443 -38.092)" fill="url(#o)"/><path d="M451.139,317.2a100.236,100.236,0,0,0-2.849,14.943,97.325,97.325,0,0,0,.2,14.884l.89,13.97c.32,5.032,1.08,10.824,5.341,13.507a2.837,2.837,0,0,0,2.208.534c1.531-.439,1.662-2.552,1.377-4.119-.558-3.122-1.484-6.172-1.9-9.317-.866-6.6.522-13.258,1.9-19.774l8.225-38.776c1.258-5.934-5.839-11.121-9.851-5.531C453.085,302.537,452.575,311.356,451.139,317.2Z" transform="translate(81.788 -37.682)" fill="url(#p)"/><path d="M424.966,291.367a28.114,28.114,0,0,0-2.587,7.181,12.534,12.534,0,0,0,2.445,9.8,10.338,10.338,0,0,0,9.186,3.822c2.374-.309,4.463-1.5,6.658-2.374a26.6,26.6,0,0,1,15.014-1.353c4.142.831,8.023,2.647,12.047,3.94a50.848,50.848,0,0,0,13.97,2.445c5.234.166,10.682-.522,15.192-3.1s8.118-7.288,8.308-12.51c.119-3.406-1.187-6.694-2.374-9.875l-13.851-35.227a34.906,34.906,0,0,0-4.641-9.08c-3.561-4.486-9.139-6.967-14.777-7.893-4.451-.736-10.86-1.412-15.24,0-3.454,1.092-4.748,5.258-6.326,8.2-5.27,9.756-10.279,19.643-15.145,29.672Q428.835,283.13,424.966,291.367Z" transform="translate(76.947 -48.671)" fill="#606161"/><path d="M424.966,291.367a28.114,28.114,0,0,0-2.587,7.181,12.534,12.534,0,0,0,2.445,9.8,10.338,10.338,0,0,0,9.186,3.822c2.374-.309,4.463-1.5,6.658-2.374a26.6,26.6,0,0,1,15.014-1.353c4.142.831,8.023,2.647,12.047,3.94a50.848,50.848,0,0,0,13.97,2.445c5.234.166,10.682-.522,15.192-3.1s8.118-7.288,8.308-12.51c.119-3.406-1.187-6.694-2.374-9.875l-13.851-35.227a34.906,34.906,0,0,0-4.641-9.08c-3.561-4.486-9.139-6.967-14.777-7.893-4.451-.736-10.86-1.412-15.24,0-3.454,1.092-4.748,5.258-6.326,8.2-5.27,9.756-10.279,19.643-15.145,29.672Q428.835,283.13,424.966,291.367Z" transform="translate(76.947 -48.671)" opacity="0.37" fill="url(#q)"/><path d="M440.274,184.448a7.762,7.762,0,0,1,4.415-5.768,3.952,3.952,0,0,0,1.709-1.009,5.532,5.532,0,0,0,.558-1.187c.867-1.982,3.027-3.038,5.1-3.62,4.581-1.306,10.112-.831,13.246,2.754a11.335,11.335,0,0,1,2.552,6.279c.261,2.279,0,4.629.558,6.86.9,3.656,3.857,6.528,4.831,10.172.475,1.78.451,3.656.914,5.436a37.094,37.094,0,0,1,1.329,4.427,11.49,11.49,0,0,1-1,5.531,8.546,8.546,0,0,1-2.1,3.478c-2.065,1.816-5.341,1.448-7.715.059s-4.142-3.561-6.136-5.483-4.475-3.561-7.216-3.561c-1.519,0-3.074.617-4.51.107a4.5,4.5,0,0,1-2.587-4.071,20.318,20.318,0,0,1,.736-5.044,7.845,7.845,0,0,0-.309-5.009C442.92,191.475,439.609,188.638,440.274,184.448Z" transform="translate(80.309 -60.655)" fill="#606161"/><path d="M440.274,184.448a7.762,7.762,0,0,1,4.415-5.768,3.952,3.952,0,0,0,1.709-1.009,5.532,5.532,0,0,0,.558-1.187c.867-1.982,3.027-3.038,5.1-3.62,4.581-1.306,10.112-.831,13.246,2.754a11.335,11.335,0,0,1,2.552,6.279c.261,2.279,0,4.629.558,6.86.9,3.656,3.857,6.528,4.831,10.172.475,1.78.451,3.656.914,5.436a37.094,37.094,0,0,1,1.329,4.427,11.49,11.49,0,0,1-1,5.531,8.546,8.546,0,0,1-2.1,3.478c-2.065,1.816-5.341,1.448-7.715.059s-4.142-3.561-6.136-5.483-4.475-3.561-7.216-3.561c-1.519,0-3.074.617-4.51.107a4.5,4.5,0,0,1-2.587-4.071,20.318,20.318,0,0,1,.736-5.044,7.845,7.845,0,0,0-.309-5.009C442.92,191.475,439.609,188.638,440.274,184.448Z" transform="translate(80.309 -60.655)" opacity="0.37" fill="url(#r)"/><path d="M494.567,205.775a7.228,7.228,0,0,1,1.709,1.4c1.638,2.077.653,5.1-.4,7.537a2.991,2.991,0,0,1-4.059,2.172q-7.94-1.258-15.821-2.932l3.015,19.489a23.593,23.593,0,0,1,.368,7.24c-.38,2.374,2.742,7.311.605,8.451-1.709.914-8.106-1.59-10.041-1.6-6.112,0-15.014,2.659-21.127,2.647a4.1,4.1,0,0,1-2.718-.665c-1.519-1.306-.677-6.006-.57-8,.131-2.837,1.056-5.59-.653-7.857a32.272,32.272,0,0,1-6.065-14.243c-.107-.641-.273-1.4-.878-1.638a5.934,5.934,0,0,0-1.187-.071,2.184,2.184,0,0,1-1.579-1.828,6.943,6.943,0,0,1,2.73-6.658,20.307,20.307,0,0,1,6.837-3.2c8.308-2.718,16.925-6.955,25.744-7.121A43.167,43.167,0,0,1,494.567,205.775Z" transform="translate(79.355 -55.668)" fill="#f4f4f6"/><path d="M452.256,204.657a3.407,3.407,0,0,0,1.092,2.267c.9.665,7.691,1.092,7.75-5.733a40.606,40.606,0,0,0-1-7.311c-.427-.855-1.745,1.5-2.682,1.294-1.65-.344-7,.4-6.279,2.077C452.173,199.767,451.912,202.686,452.256,204.657Z" transform="translate(82.344 -56.639)" fill="url(#s)"/><path d="M452.464,201.01a3.1,3.1,0,0,0,1.068,1.187,2.576,2.576,0,0,0,1.4.261,5.46,5.46,0,0,0,4.261-3.015A9.4,9.4,0,0,0,460,194.09c0,.451-2.077,1.436-2.374,1.6-.938.451-1.911.8-2.86,1.187a12.455,12.455,0,0,0-2.754,1.377C451.1,198.933,451.966,200.167,452.464,201.01Z" transform="translate(82.445 -56.564)" opacity="0.37" fill="url(#t)"/><path d="M446.987,195.471a10.48,10.48,0,0,0,7.24,6.48,5.934,5.934,0,0,0,2.884-.071,6.338,6.338,0,0,0,2.516-1.6,15.025,15.025,0,0,0,3.846-8.771,15.644,15.644,0,0,0-.332-6.8,8.474,8.474,0,0,0-4.19-5.2,13.329,13.329,0,0,0-6.777-.712,8.628,8.628,0,0,0-2.267.38c-2.374.866-3.561,4.249-3.857,6.528a19.252,19.252,0,0,0,.938,9.768Z" transform="translate(81.358 -59.452)" fill="url(#u)"/><path d="M484.183,214.185c0,3.323,1.84,6.884,5.021,7.881a6.136,6.136,0,0,0,6.694-2.3,11.585,11.585,0,0,0,1.519-6.041q.332-6.053.285-12.13c-.059-5.709-.4-11.5-2.255-16.9s-5.388-10.421-10.492-13.056a1.887,1.887,0,0,0-1.056-.285c-1.187.178-1.009,2.03-.427,3.133l2.813,5.377c-1.531.2-3.561,1.116-3.074,2.576.32,1,1.59,1.187,2.54,1.674,2.813,1.329,3.24,5.1,2.991,8.2a74.613,74.613,0,0,1-2.267,11.964C485.643,207.586,484.112,210.779,484.183,214.185Z" transform="translate(88.314 -60.814)" fill="url(#v)"/><path d="M427.621,214.929a19.266,19.266,0,0,0-4.546,3.751,8.142,8.142,0,0,0-2.065,5.4,5.258,5.258,0,0,0,3.05,4.748c2.374.926,4.9-.273,7.121-1.448l9.994-5.365a9.234,9.234,0,0,0,3.727-2.908c1.531-2.469.4-5.733-1.187-8.142a6.457,6.457,0,0,0-1.923-2.041c-2.006-1.187-4.866,1.056-6.73,1.935a64.527,64.527,0,0,0-7.442,4.071Z" transform="translate(76.725 -53.856)" fill="#f4f4f6"/><path d="M426.88,218.515a136.116,136.116,0,0,1,19.869-2.243,53.707,53.707,0,0,1,16.474,1.377,7.774,7.774,0,0,1,2.516,1.08,1.4,1.4,0,0,1,.712,1.187c-.083.558-.665.866-1.187,1.033-2.374.748-4.937.237-7.394.487a.755.755,0,0,0-.677.32c-.214.451.451.807.617,1.282s-.546,1.187-1.187,1.116a5.518,5.518,0,0,1-1.78-.783c-1.733-.843-3.8-.356-5.65.19q-6.564,1.911-12.973,4.308a15.168,15.168,0,0,1-5.709,1.353,11.584,11.584,0,0,1-4.926-1.555,8.154,8.154,0,0,1-3.383-2.837C420.138,221.28,423.889,219.084,426.88,218.515Z" transform="translate(76.837 -52.444)" fill="url(#w)"/><path d="M447.415,356.4a4.867,4.867,0,0,0,.273,2.267,2.018,2.018,0,0,0,1.768,1.258,19.1,19.1,0,0,0,4.142,7.05,7.537,7.537,0,0,0,2.86,2.089,3.4,3.4,0,0,0,3.371-.51c1.187-1.116,1.116-3.038.771-4.653a54.451,54.451,0,0,0-4.439-11.715,19.809,19.809,0,0,1,.629,6.077,2.516,2.516,0,0,1-.843,2.1c-.985.653-2.267-.2-3.05-1.08a18.73,18.73,0,0,1-3.9-6.753,4.154,4.154,0,0,1-.237-2.041A38.1,38.1,0,0,0,447.415,356.4Z" transform="translate(81.654 -27.334)" fill="#606161"/><path d="M467.111,335.96a3.763,3.763,0,0,0,.4,2.932,17.887,17.887,0,0,1,1.187,4.748,2.884,2.884,0,0,1-.582,2.445,3,3,0,0,0-.593.57,1.5,1.5,0,0,0,0,1.044l1.187,5.768a2.374,2.374,0,0,0,.9,1.733c.949.546,2.077-.38,2.647-1.317a10.054,10.054,0,0,0,1.484-5.673,20.178,20.178,0,0,0-2.706-8.035c.249.522,1.187.356,1.377-.19a1.579,1.579,0,0,0-.451-1.6C471.479,337.918,467.74,334.619,467.111,335.96Z" transform="translate(85.316 -30.11)" fill="#606161"/><path d="M93.4,334.912c-1.044,3.335-2.374,6.706-2.113,10.2a16.225,16.225,0,0,1,.2,4.534,8.937,8.937,0,0,1-2.457,3.964,62.642,62.642,0,0,1-7.727,7,4.546,4.546,0,0,1-2.184,1.092,1.65,1.65,0,0,1-1.863-1.187,2.54,2.54,0,0,1,.451-1.5,40.139,40.139,0,0,0,3.656-8.19A54.253,54.253,0,0,0,83,337.9c.534-11.869,1.068-23.738.677-35.607-.237-7.371-.819-14.741-.285-22.1a3.845,3.845,0,0,1,.475-1.863c1.745-2.6,8.807-3.086,11.264-1.317s2.374,5.353,2.374,8.059c0,10.682.119,21.423-.8,32.046A84.436,84.436,0,0,1,93.4,334.912Z" transform="translate(12.481 -41.262)" fill="#f0decd"/><path d="M92.528,341.179a66.952,66.952,0,0,1-1.507,10.528,4.451,4.451,0,0,1-1.757-4.166c-2.777.783-3.964,4.107-6.362,5.721a11.87,11.87,0,0,1-6.207,1.4,3.655,3.655,0,0,1-1.6-.166,2.481,2.481,0,0,1-1.187-2.872,7.122,7.122,0,0,1,1.709-2.9,3.489,3.489,0,0,1,1.638-1.329,4.545,4.545,0,0,1,1.6,0,10.409,10.409,0,0,0,7.774-3.145c1.757-1.65,2.647-3.9,4.237-5.614.843-.9.807-1.424,1.531,0a5.234,5.234,0,0,1,.131,2.54Z" transform="translate(11.836 -29.714)" fill="#606161"/><path d="M123.433,278.083a41.636,41.636,0,0,1,22.468-6.564,6.125,6.125,0,0,0,3.786-.772,10.325,10.325,0,0,0,1.46-1.674c2.5-2.932,6.967-2.86,10.8-2.552,2.374.19,5.1.653,6.112,2.777-2.374,2.374-5.839,3.335-9.032,4.463a63.511,63.511,0,0,0-23.738,15.05c-1.863,1.887-3.561,3.893-5.626,5.626a28.1,28.1,0,0,1-6.753,4.3,6.207,6.207,0,0,1-7.667-1.258,29.138,29.138,0,0,1-10.824-18.8,5.341,5.341,0,0,1,.273-3.145,5.828,5.828,0,0,1,2.172-2.018c2.742-1.78,8.023-5.519,11.537-4.118C119.777,269.953,123.754,277.881,123.433,278.083Z" transform="translate(17.534 -43.054)" fill="#f0decd"/><path d="M161.355,273.363a7.56,7.56,0,0,0,2.979.415,2.587,2.587,0,0,0,2.255-1.757,3.3,3.3,0,0,0-.973-2.742,11.655,11.655,0,0,0-9.258-4.166,11.3,11.3,0,0,1-3.228-.059,1.555,1.555,0,0,1-.712-.356,1.721,1.721,0,0,1-.119-1.958,7.619,7.619,0,0,0,.843-1.911.783.783,0,0,0,0-.4.748.748,0,0,0-.582-.4,2.125,2.125,0,0,0-1.78.617,15.034,15.034,0,0,0-1.282,1.46c-1.009,1.187-2.374,1.923-3.418,2.979a4.392,4.392,0,0,0-1.531,4.059,1.187,1.187,0,0,0,.309.546,1.282,1.282,0,0,0,1.033.131c3.086-.439,6.35-1.044,9.4-.131a4.973,4.973,0,0,1,2.86,2.184C158.91,272.936,160.132,273.055,161.355,273.363Z" transform="translate(25.047 -44.245)" fill="#606161"/><path d="M141.837,194.971a15.917,15.917,0,0,1-2.813,4.13c-.285.332-.617.665-.914,1-1.816,1.923-4.178,3.846-6.789,3.442-3.762-.593-5.934-5.685-9.744-5.353-1.294.107-2.374.843-3.656,1.068a7.549,7.549,0,0,1-5.424-1.8,20.781,20.781,0,0,0-4.9-3.181,18.231,18.231,0,0,0-6.385-.475c-2.8.071-5.578,0-7.561-2.148-2.694-2.908-2.92-9.59-3.442-13.317a18.6,18.6,0,0,1,0-6.635,11.477,11.477,0,0,1,9.744-8.237,14.741,14.741,0,0,1,12.178,4.748,37.5,37.5,0,0,0,4.095,4.356c2.587,1.958,5.934,2.374,9.115,3.1s6.528,2.255,7.715,5.246a19.334,19.334,0,0,0,1.187,3.323c1.033,1.65,3.181,2.243,5.092,2.54a4.107,4.107,0,0,1,1.994.665,2.872,2.872,0,0,1,.926,1.365,8.1,8.1,0,0,1-.415,6.172Z" transform="translate(14.845 -62.3)" fill="#606161"/><path d="M137.574,196.771c-.285.332-.617.665-.914,1-1.816,1.923-4.178,3.846-6.789,3.442-3.762-.593-5.934-5.685-9.744-5.353-1.294.107-2.374.843-3.656,1.068a7.548,7.548,0,0,1-5.424-1.8,20.783,20.783,0,0,0-4.9-3.181,18.23,18.23,0,0,0-6.385-.475,10.232,10.232,0,0,1-1.294-2.1c-1.662-3.727-.7-8.676,2.659-11.038,1.994-1.4,5.234-3.027,7.715-2.136a20.082,20.082,0,0,1,7.525,4.463c2.065,2.291,2.587,5.756,4.9,7.75,2.113,1.8,5.127,1.958,7.822,2.659a17.317,17.317,0,0,1,5.246,2.279,8.189,8.189,0,0,1,3.169,3.252C137.538,196.664,137.574,196.7,137.574,196.771Z" transform="translate(16.295 -59.957)" opacity="0.37" fill="url(#x)"/><path d="M95.787,196.889a21.839,21.839,0,0,1-7.644,5.424,4.51,4.51,0,0,1-6.124-1.911c-.3-.415-.593-.819-.843-1.187a48.3,48.3,0,0,1-4.748-10.148c-1-2.694-1.958-5.353-2.955-8.012a3.454,3.454,0,0,1-.332-1.7,3.3,3.3,0,0,1,1-1.8,4.961,4.961,0,0,1,.629-.593,14.54,14.54,0,0,1,5.021-3.276c1.436-.593,3.24-.89,4.463.142a5.934,5.934,0,0,1,1.4,2.73c1.994,6.018,5.863,10.338,10.682,14.1C99.585,193.019,98.256,194.337,95.787,196.889Z" transform="translate(11.71 -60.479)" fill="#f4f4f6"/><path d="M81.176,198.584a48.3,48.3,0,0,1-4.748-10.148c-1-2.694-1.958-5.353-2.955-8.012a3.454,3.454,0,0,1-.332-1.7,3.3,3.3,0,0,1,1-1.8,4.959,4.959,0,0,1,.629-.593,12.58,12.58,0,0,1,2.694.89,2.884,2.884,0,0,1,1.875,1.7,3.739,3.739,0,0,1,0,1.7c-.51,4.13,2.255,6.789,3.561,10.409C83.657,193.16,83.657,198.359,81.176,198.584Z" transform="translate(11.71 -59.884)" opacity="0.37" fill="url(#y)"/><path d="M83.83,175.16a2.753,2.753,0,0,1-.665.961l-1.187,1.258-.226.214a6.326,6.326,0,0,1-1.4,1.08,8.024,8.024,0,0,1-1.59.51,19.835,19.835,0,0,1-3.869.593,9.15,9.15,0,0,1-1.4-.071.581.581,0,0,1-.368-.19.427.427,0,0,1,0-.3,2.113,2.113,0,0,1,.7-1.187c.178-.19.368-.332.582-.522.593-.439,1.08-1,1.662-1.436A16.736,16.736,0,0,1,80.1,173.8a7.124,7.124,0,0,1,1.436-.439,2.587,2.587,0,0,1,.914,0,1.6,1.6,0,0,1,1.377,1.8Z" transform="translate(11.703 -60.447)" fill="#606161"/><path d="M134.156,212.922a51.726,51.726,0,0,1-1.875,8.154c-.142.51-1.662,3.43-2.1,3.43-5.282-.439-10.338-4.356-14.575-7.525-1.068-.783-2.481-1.7-3.561-1.116-.107,0-.178.083-.3.154a3.181,3.181,0,0,0-.878,1.187c-.819,1.626-1.626,3.288-2.445,4.914a21.246,21.246,0,0,0-2.374,6.385,26.3,26.3,0,0,0,.3,6.825,52.732,52.732,0,0,1,.261,5.934,2.86,2.86,0,0,1-.807,2.374,3,3,0,0,1-1.258.487c-.593.107-1.187.178-1.768.285a57.328,57.328,0,0,1-14.326.3c-3.561-.368-7.121-1.187-9.7-3.561a6.6,6.6,0,0,1-1.887-3.027,10.529,10.529,0,0,1,0-2.991c.226-2.374.439-4.688.665-7.05.487-5.27.926-10.682-.51-15.786-.819-2.884-2.219-5.614-2.659-8.569a5.507,5.507,0,0,1,.071-2.065,4.747,4.747,0,0,1,1.472-1.946c1.887-1.59,4.249-2.659,5.756-4.617,1.187-1.472,1.78-3.395,3.288-4.5s3.691-1,5.614-.819c3.94.415,7.893.961,11.869,1.662.558.119,1.187.19,1.78.261a22.907,22.907,0,0,1,7.264,1.8,22.93,22.93,0,0,1,4.748,3.727c2.623,2.433,5.353,4.748,8.19,6.908s5.685,4.273,8.676,6.231a2.73,2.73,0,0,1,1.187,1.187,2.374,2.374,0,0,1-.119,1.365Z" transform="translate(11.927 -57.391)" fill="#f4f4f6"/><path d="M119.818,203.785c-1.875.665-4.024-.19-5.863-1a34.981,34.981,0,0,1-4.249-2.184c-2.03-1.329-3.679-3.133-5.828-4.273-1.507-.819-4.356-.926-5.46-2.374s-.226-2.148,1.187-2.587a22.907,22.907,0,0,1,7.264,1.8,22.931,22.931,0,0,1,4.748,3.727C114.252,199.31,117.005,201.613,119.818,203.785Z" transform="translate(16.342 -57.073)" opacity="0.37" fill="url(#z)"/><path d="M120.6,218.1c0,.451-.154.961.273,1.1s.819-.214,1.1-.546.439-.522.653-.783a3.383,3.383,0,0,0,.617-1.056,3.323,3.323,0,0,0,.059-1.282,3.8,3.8,0,0,0-.166-.973,1.246,1.246,0,0,0-.641-.724C120.182,212.87,120.55,217.012,120.6,218.1Z" transform="translate(20.571 -52.9)" fill="#606161"/><path d="M104.139,193.714a1.5,1.5,0,0,1-.071.724,1.389,1.389,0,0,1-.688.546,33.565,33.565,0,0,0-5.721,2.682c-1.685,1.187-3,3.05-5,3.632a3.418,3.418,0,0,1-.5-2.659,19.7,19.7,0,0,1,.807-2.671,23.179,23.179,0,0,0,.76-7.572,9.388,9.388,0,0,1,.309-3.5,2.932,2.932,0,0,1,2.587-2.065c1.306,0,2.243,1.187,3.2,2.065,1.187,1.08,3.24,1.377,3.739,2.742C104.2,189.287,103.961,191.85,104.139,193.714Z" transform="translate(15.251 -58.669)" fill="#f0decd"/><path d="M107.5,188.27a7.477,7.477,0,0,1-3.027,4.047,5.934,5.934,0,0,1-5.2,0,10.172,10.172,0,0,1-4.748-4.748,16.747,16.747,0,0,1-1.626-6.623,12.747,12.747,0,0,1,.32-4.024,8.973,8.973,0,0,1,6.753-6.291,13.911,13.911,0,0,1,3.442-.166,7.015,7.015,0,0,1,1.923.32,6.077,6.077,0,0,1,1.97,1.306A7.122,7.122,0,0,1,109,174.3a12.7,12.7,0,0,1,.475,6.124,34.931,34.931,0,0,1-1.982,7.845Z" transform="translate(15.396 -60.987)" fill="#f0decd"/><path d="M145.923,201.33c-.985-3.561,1.021-7.335.522-10.991-.107-.771-.178-1.816.57-2.065a1.317,1.317,0,0,1,1.246.415,4.392,4.392,0,0,1,1.377,3.81c1.056-.32,2.113-.617,3.181-.89a1.911,1.911,0,0,1,1.033-.059c.593.19.831.878,1,1.484.819,3,1.6,6.35.131,9.092a11.763,11.763,0,0,1-2.469,2.9,121.067,121.067,0,0,1-11.679,9.638,42,42,0,0,1-9.353,5.46,18.575,18.575,0,0,1-10.682,1.116c-1.009-.237,1.555-6.374,1.9-6.92,1.543-2.457,3.929-3.252,6.445-4.522Z" transform="translate(20.574 -57.656)" fill="#f0decd"/><path d="M83.117,183.024l-.226.214a6.326,6.326,0,0,1-1.4,1.08,8.024,8.024,0,0,1-1.59.51,19.834,19.834,0,0,1-3.869.593,17.438,17.438,0,0,1-1.068-1.733c-.926-1.555-1.662-3.133-2.113-3.988a28.711,28.711,0,0,1-1.982-6.825,119.423,119.423,0,0,1-2.481-14.836,10.326,10.326,0,0,0-.771-3.869,8.616,8.616,0,0,1-.736-1.484,3.561,3.561,0,0,1-.154-1.662,7.038,7.038,0,0,1,2.955-5.044,11.254,11.254,0,0,0,1.365-1.044c.522-.582.819-1.507,1.59-1.768a1.7,1.7,0,0,1,1.768.629,4.641,4.641,0,0,1,.807,1.852c.332,1.187.665,2.314,1,3.5a5.009,5.009,0,0,1,3.288-2.374c-1.7,3.2-3.43,6.682-3.2,10.326a21.008,21.008,0,0,0,1.662,5.934c.807,2.065,1.543,4.13,2.314,6.231a64.935,64.935,0,0,1,2.516,9.673,32.234,32.234,0,0,1,.332,4.083Z" transform="translate(10.506 -66.091)" fill="#f0decd"/><path d="M132.048,269.6a3.561,3.561,0,0,1-1.187,2.73c-1.958,2.208-3.869,4.427-5.792,6.635a28.413,28.413,0,0,1-3.952,4.059,11.329,11.329,0,0,1-1.543,1.187,22.752,22.752,0,0,1-7.276,2.469A128.66,128.66,0,0,1,73,288.813,74.68,74.68,0,0,0,76.252,274a88.722,88.722,0,0,0-.7-14.943q-.95-10.362-.926-20.771c0-3.11.19-6.5,2.291-8.747,7.121,4.237,16.747,1.365,23.9,5.46.38.214.783.475,1.187.7a5.638,5.638,0,0,0,2.576.926c2.148,0,2.184-1.958,4.581-1.329,1.84.51,3.656,2.54,4.748,4.059a42.088,42.088,0,0,1,3.952,7.786,82.488,82.488,0,0,0,13.246,20.771,3.786,3.786,0,0,1,.938,1.685Z" transform="translate(11.685 -49.939)" fill="#e4572e"/><path d="M334.837,326.639a1.341,1.341,0,0,0-.095.712,1.46,1.46,0,0,0,.593.724,11.488,11.488,0,0,0,2.943,1.768,3.81,3.81,0,0,0,3.311-.261,5.459,5.459,0,0,0,1.531-1.828l7.359-11.928c-.5-1.306-2.219-1.543-3.62-1.567a15.322,15.322,0,0,0-4.748,1.056c-1.056.285-2.136-.368-2.991.32-1.1.89-1.757,4.119-2.255,5.436Q335.763,323.838,334.837,326.639Z" transform="translate(60.6 -34.106)" fill="#e9cac5"/><path d="M319.273,280.233c6.065,4.368,13.4,6.5,20.581,8.557l15.263,4.38a134.382,134.382,0,0,0-14.243,36.521l11.133,1.4a3.311,3.311,0,0,0,1.982-.166,3.217,3.217,0,0,0,1.08-1.187l20.545-31.346c1.947-2.955,3.976-6.3,3.371-9.8-.688-3.964-4.463-6.528-7.917-8.617l-24.224-14.694c-5.934-3.561-11.94-7.2-18.682-8.676-4.985-1.092-17.151-1.258-19.05,5C307.1,268.222,314.538,276.827,319.273,280.233Z" transform="translate(55.749 -44.991)" fill="#606161"/><path d="M319.273,280.233c6.065,4.368,13.4,6.5,20.581,8.557l15.263,4.38a134.382,134.382,0,0,0-14.243,36.521l11.133,1.4a3.311,3.311,0,0,0,1.982-.166,3.217,3.217,0,0,0,1.08-1.187l20.545-31.346c1.947-2.955,3.976-6.3,3.371-9.8-.688-3.964-4.463-6.528-7.917-8.617l-24.224-14.694c-5.934-3.561-11.94-7.2-18.682-8.676-4.985-1.092-17.151-1.258-19.05,5C307.1,268.222,314.538,276.827,319.273,280.233Z" transform="translate(55.749 -44.991)" opacity="0.37" fill="url(#aa)"/><path d="M297.849,275.467c-.273,31.915-.4,64.662,10.682,94.6a4.391,4.391,0,0,0,1.187,1.97,3.038,3.038,0,0,0,2.255.57,6.386,6.386,0,0,0,4.878-4.035,18.813,18.813,0,0,0,1.187-6.5c1.009-17.934,1.852-35.927.736-53.849a33.812,33.812,0,0,1,0-6.575c.5-3.679,2.279-7.038,3.964-10.35,4.415-8.688,8.4-17.8,9.5-27.488a12.071,12.071,0,0,0-.8-6.931,9.305,9.305,0,0,0-6.112-4.356,27.773,27.773,0,0,0-7.691-.427c-6.552.237-11.608,0-16.771,4.475C296.258,260.417,297.9,270.055,297.849,275.467Z" transform="translate(53.662 -45.744)" fill="#606161"/><path d="M317.62,276.42c6.065,4.368,13.4,6.5,20.581,8.557l15.263,4.38" transform="translate(57.403 -41.178)" opacity="0.37" fill="url(#h)"/><path d="M297.849,275.467c-.273,31.915-.4,64.662,10.682,94.6a4.391,4.391,0,0,0,1.187,1.97,3.038,3.038,0,0,0,2.255.57,6.386,6.386,0,0,0,4.878-4.035,18.813,18.813,0,0,0,1.187-6.5c1.009-17.934,1.852-35.927.736-53.849a33.812,33.812,0,0,1,0-6.575c.5-3.679,2.279-7.038,3.964-10.35,4.415-8.688,8.4-17.8,9.5-27.488a12.071,12.071,0,0,0-.8-6.931,9.305,9.305,0,0,0-6.112-4.356,27.773,27.773,0,0,0-7.691-.427c-6.552.237-11.608,0-16.771,4.475C296.258,260.417,297.9,270.055,297.849,275.467Z" transform="translate(53.662 -45.744)" opacity="0.37" fill="url(#ac)"/><path d="M330.026,199.554c11.418-1.306,27.3-6.207,32.343-10.8a8.83,8.83,0,0,1,2.694-2.006c2.611-.961,5.175,1.187,7.679,2.374a11.5,11.5,0,0,0,10.112-.131c2.1,3.24.107,7.62-2.576,10.409-7.9,8.308-20.343,9.827-30.551,14.979a46.136,46.136,0,0,0-11.014,7.774c-.772.736-2.682,3.418-4.024,2.279-.8-.665.095-4.213.226-5.1C336.02,211.863,322.252,200.433,330.026,199.554Z" transform="translate(59.274 -57.982)" fill="#e4572e"/><path d="M315.323,226.253a3.027,3.027,0,0,1-.926,0c-3.466-.285-6.825-4.831-9.994-6.231-.3-.142-.593-.261-.926-.439-7.525-3.656-16.047-12.367-21.958-17.9a9.424,9.424,0,0,1,3.656-2.469c.629-.332,1.258-.629,1.84-.961a11.252,11.252,0,0,0,4.807-5.934c5.673,3.656,14.575,4.748,21.839,6.682a32.9,32.9,0,0,1,4.617,1.472c1.614.665-1.187,4.581.249,5.685C324.094,210.468,320.806,225.446,315.323,226.253Z" transform="translate(50.656 -56.895)" fill="#e4572e"/><path d="M376.266,206.615a11.406,11.406,0,0,0,1.828-6.765c.131-9.282-4.035-18.041-8.486-26.183-2.3-4.225-4.748-8.427-6.065-13.056-1.4-4.748-1.6-10.017-3.976-14.421-1.187-2.219-3.727-4.344-6.006-3.276-1.958.926-2.291,3.561-2.2,5.709s.225,4.664-1.377,6.112c-.309.285-.677.534-.783.926-.214.783.677,1.353,1.389,1.733,4.3,2.231,6.813,6.931,7.833,11.655s.76,9.626.926,14.456a42.48,42.48,0,0,0,2.552,14.243C363.721,202.224,370.866,213.808,376.266,206.615Z" transform="translate(63.3 -66.182)" fill="#e9cac5"/><path d="M339.828,325.252a12.685,12.685,0,0,0-2.516-1.448,2.124,2.124,0,0,0-2.552.783,2.944,2.944,0,0,0-.154,1.507,4.191,4.191,0,0,0,.166.95,3.241,3.241,0,0,0,1.638,1.59,20.971,20.971,0,0,0,2.576,1.056,1.792,1.792,0,0,0,2.279-.451c.51-.463,2.125-1.923,1.745-2.765-.166-.368-1.056-.368-1.412-.475a7.992,7.992,0,0,1-1.769-.748Z" transform="translate(60.57 -32.35)" fill="#f4f4f6"/><path d="M347.467,335.5c-1.044-1.507-1.852-3.157-2.92-4.653a8.747,8.747,0,0,0-4.178-3.442c-1.246-.427-2.623-.415-3.834-.926a4.023,4.023,0,0,0-1.389-.475c-.973,0-1.674.878-2.208,1.7-1.068,1.65-2.184,3.561-1.733,5.46a6.4,6.4,0,0,0,1.579,2.67c1.745,1.97,4.059,3.751,6.694,3.715-.131,1.187,1.187,2.077,2.291,2.623l3.94,1.887a7.048,7.048,0,0,0,2.2.783,3.786,3.786,0,0,0,3.217-1.187C354.161,340.326,349.176,337.928,347.467,335.5Z" transform="translate(59.923 -31.911)" fill="#606161"/><path d="M308.206,359.566a.914.914,0,0,0,.166.593.95.95,0,0,0,.475.273,13.66,13.66,0,0,0,4.748.712,2.8,2.8,0,0,0,1.365-.285,2.848,2.848,0,0,0,1.187-1.923,23.739,23.739,0,0,0,.285-7.121,3.466,3.466,0,0,0-1.187-2.943,2.932,2.932,0,0,0-2.243-.083c-1.638.439-4.154,1.6-4.878,3.276C307.256,354,308.051,357.513,308.206,359.566Z" transform="translate(55.553 -27.687)" fill="#e9cac5"/><path d="M308.3,357.186a1.057,1.057,0,0,0-.629.249.867.867,0,0,0-.2.451,5.65,5.65,0,0,0,.89,4.558.8.8,0,0,0,.368.32.783.783,0,0,0,.332,0q3.9-.427,7.739-1.187a3.679,3.679,0,0,0,2.148-.985,2.576,2.576,0,0,0,.237-2.659c-1.044-2.374-2.255-2.03-4.5-1.685Z" transform="translate(55.478 -26.304)" fill="#f4f4f6"/><path d="M320.115,358.854a10.682,10.682,0,0,0-5.329-.439l-5.08.463a4.748,4.748,0,0,0-1.626.344,5.079,5.079,0,0,0-1.531,1.365,35.354,35.354,0,0,1-6.611,5.875A6.9,6.9,0,0,0,298.122,368a2.077,2.077,0,0,0-.237,2.231,2.872,2.872,0,0,0,2.5,1,24.379,24.379,0,0,0,15.43-5.032,1.555,1.555,0,0,1,1.009-.463,2.077,2.077,0,0,1,.855.427,3.157,3.157,0,0,0,3.323,0C323.581,364.491,322.726,360.029,320.115,358.854Z" transform="translate(53.673 -25.882)" fill="#606161"/><path d="M350.171,234.386c-2.374,13.056-3.8,26.753-11.584,38.23a9.756,9.756,0,0,1-3.561,3.43,12.855,12.855,0,0,1-4.5.878c-6.124.451-12.545.855-18.48-.178-.855-.154-1.662-.332-2.481-.558a24.925,24.925,0,0,1-5.092-1.875,15.427,15.427,0,0,1-2.991-1.958,8.8,8.8,0,0,1-1.7-1.887,12.213,12.213,0,0,1-1.365-6.089c-.546-15.24.558-30.444,1.887-45.6.19-1.733.332-3.43.475-5.127a36.349,36.349,0,0,1,1.033-6.421,12.237,12.237,0,0,1,5.139-7.525,13.72,13.72,0,0,1,3.561-1.519,33.931,33.931,0,0,1,6.457-1.033c4.427-.368,8.854-.558,13.317-.522,11.667,0,20.118,9.816,21.483,19.228C352.652,221.995,351.251,228.226,350.171,234.386Z" transform="translate(53.788 -56.09)" fill="#e4572e"/><path d="M315.722,277.343c-1-.475-2.03-.95-3.027-1.436-2.694-1.294-5.389-2.587-8.083-3.834a8.8,8.8,0,0,1-1.7-1.887,12.213,12.213,0,0,1-1.365-6.089c-.546-15.24.558-30.444,1.887-45.6-7.525-3.656-16.047-12.367-21.958-17.9a9.424,9.424,0,0,1,3.656-2.469c2.374.582,4.748,2.065,6.9,3.027,4.32,1.875,8.712,3.561,12.913,5.792,1.116.582,2.255,1.187,3.359,1.875a12.379,12.379,0,0,1,4.843,4.392,13.508,13.508,0,0,1,1.187,5.388c.107,2.184.107,4.391.071,6.564a47.688,47.688,0,0,1-.332,5.246c-.771,8.012-2.73,15.833-3.276,23.833-.558,7.679.332,15.762,4.427,22.219A5.5,5.5,0,0,0,315.722,277.343Z" transform="translate(50.648 -55.809)" opacity="0.37" fill="url(#ad)"/><path d="M320.721,207.378a5.329,5.329,0,0,0,5.828-.878c1.412-1.424,1.685-3.561,1.709-5.614a39.159,39.159,0,0,0-.309-5.65,6.4,6.4,0,0,0-.582-2.208c-1.08-2.053-3.81-2.528-6.136-2.374-3.774.214-8.166,2.374-6.5,6.611C316.127,200.885,316.685,205.609,320.721,207.378Z" transform="translate(56.794 -57.212)" fill="#e9cac5"/><path d="M332.835,195.725a6.86,6.86,0,0,1-3.169,3.881,7.454,7.454,0,0,1-3.466.487,24.353,24.353,0,0,1-6.374-1.187,12.035,12.035,0,0,1-4.748-2.611,15.084,15.084,0,0,1-2.86-4.261c-2.184-4.4-3.988-9.5-2.492-14.148a11.1,11.1,0,0,1,8.308-7.371C330.663,168.047,336.6,186.337,332.835,195.725Z" transform="translate(55.825 -61.013)" fill="#e9cac5"/><path d="M315.441,166.7a8.629,8.629,0,0,0-5.59,5.044c-.582,1.436-.855,3.074-1.947,4.178a14.242,14.242,0,0,1-1.994,1.436,7.323,7.323,0,0,0-2.718,7.561,9,9,0,0,1,.463,2.053,11.216,11.216,0,0,1-.57,2.6,5.5,5.5,0,0,0,5.389,6.3,3.941,3.941,0,0,1,2.374.2c.605.415.866,1.282,1.555,1.531,1.08.392,1.911-.95,2.279-2.03a13.947,13.947,0,0,0,1.021-6.065,27.442,27.442,0,0,0-1.187-4.166,13.934,13.934,0,0,1-.546-5.044,3.929,3.929,0,0,1,.593-2.018c.961-1.329,3.038-1.306,4.2-2.469.843-.843,1.27-2.374,2.457-2.374.712-.059,1.329.463,1.97.807a3.964,3.964,0,0,0,3.846-.154,21.365,21.365,0,0,0,3.383,2.374c.582.32.225-3.988.059-4.356a5.282,5.282,0,0,0-3.881-2.932C323.179,168.063,319.191,165.7,315.441,166.7Z" transform="translate(54.668 -61.729)" fill="#606161"/><path d="M280.623,205.738a16.011,16.011,0,0,1-1.6-9.305c.617-8.486,4.047-16.486,7.691-24.177,1.4-2.979,2.884-6.124,2.564-9.388a3.94,3.94,0,0,1,.107-2.172,4.51,4.51,0,0,1,.961-1.056c1.412-1.365,2.03-3.323,3.074-4.985a7.406,7.406,0,0,1,4.024-3.311,4.5,4.5,0,0,1,4.807,1.424,5.638,5.638,0,0,1,.914,2.967c.214,3.774-1.46,7.406-3.561,10.563a18.282,18.282,0,0,0-1.638,2.73,15.2,15.2,0,0,0-.831,2.8c-1.412,6.184-2.825,12.4-2.967,18.741-.083,3.383.2,6.765,0,10.136a23.074,23.074,0,0,1-1.092,6.16c-.677,2.03-1.187,3.632-3.466,3.7a10.255,10.255,0,0,1-8.985-4.831Z" transform="translate(50.164 -64.592)" fill="#e9cac5"/><path d="M197.99,209.3c-.926,2.374-1.78,4.653-2.54,7.026,2.089-1.531,3.667-3.929,6.148-4.641a.5.5,0,0,0,.261-.131.534.534,0,0,0,0-.273,4.748,4.748,0,0,0-.51-2.018,7.525,7.525,0,0,1-.831-1.768c-.083-.451.2-.926-.3-.89s-.926.783-1.187,1.009A4.189,4.189,0,0,0,197.99,209.3Z" transform="translate(34.57 -54.225)" fill="#f4f4f6"/><path d="M208.625,223.4a2.682,2.682,0,0,0-1.863.4,1.329,1.329,0,0,0-.4,1.721,3.786,3.786,0,0,0-2.884,2.694,1.341,1.341,0,0,0,.166,1.258,1.578,1.578,0,0,0,.451.273c1.021.463,2.125.688,3.181,1.068a4.878,4.878,0,0,1,2.647,1.935,4.427,4.427,0,0,1-.178,4.178,26.5,26.5,0,0,1-2.54,3.561c-.415.558-.807,1.317-.475,1.923a1.626,1.626,0,0,0,1.009.677,5.068,5.068,0,0,0,3.917-.392,1.27,1.27,0,0,1,.439-.178,1.389,1.389,0,0,1,.653.19,2.9,2.9,0,0,0,3.359-1.329,7.56,7.56,0,0,0,.938-3.762,30.3,30.3,0,0,0-.154-6.136,8.307,8.307,0,0,0-.677-2.516c-.724-1.46-2.16-1.97-3.133-3.145A6.421,6.421,0,0,0,208.625,223.4Z" transform="translate(36.053 -51.091)" fill="#f4f4f6"/><path d="M172.757,208.112a1.935,1.935,0,0,0-1.9.973c-.119-.629-1.08-.748-1.567-.332a2.777,2.777,0,0,0-.712,1.745,37.707,37.707,0,0,0-.51,9.863,3.561,3.561,0,0,0,1.009,2.374c.688.57,2.006.368,2.172-.51a2.741,2.741,0,0,0,1.341,1.187.831.831,0,0,0,.475.071.759.759,0,0,0,.415-.249,4.748,4.748,0,0,0,1.294-3.383,23.132,23.132,0,0,0-.427-3.715,24.4,24.4,0,0,1-.2-5.424C174.241,209.524,174.336,208.314,172.757,208.112Z" transform="translate(29.43 -53.946)" fill="#f4f4f6"/><path d="M101.88,175.409a9.234,9.234,0,0,0,4.534,1.97c1.65.32,3.335.439,4.961.866.32.083.76.119.89-.178a.593.593,0,0,0,0-.427,5.933,5.933,0,0,0-.593-1.282,19.715,19.715,0,0,0-3.976-5.222,9.4,9.4,0,0,0-5.934-2.516c-1.187,0-4.949.57-4.237,2.564.285.807,1.484,1.08,2.089,1.65C100.479,173.629,101.037,174.638,101.88,175.409Z" transform="translate(16.252 -61.325)" fill="#606161"/><path d="M108.239,212.294c-.107,0-.178.083-.3.154a3.181,3.181,0,0,0-.878,1.187c-.819,1.626-1.626,3.288-2.445,4.914a21.246,21.246,0,0,0-2.374,6.385,26.3,26.3,0,0,0,.3,6.825,52.734,52.734,0,0,1,.261,5.934,2.86,2.86,0,0,1-.807,2.374,3,3,0,0,1-1.258.487c-.593.107-1.187.178-1.768.285a13.054,13.054,0,0,1-2.445-1.033,2.374,2.374,0,0,1-.985-.843,2.991,2.991,0,0,1-.083-1.8c.487-3.395-.961-6.789-1.1-10.231-.226-5.2,2.469-10.065,5.092-14.575a9.2,9.2,0,0,1,1.887-2.54c1.543-1.294,4.937-1.555,6.3.261a3.668,3.668,0,0,1,.605,2.219Z" transform="translate(15.673 -53.819)" opacity="0.37" fill="url(#ae)"/><path d="M127.48,268.707a3.561,3.561,0,0,1-1.187,2.73c-1.958,2.208-3.869,4.427-5.792,6.635a28.415,28.415,0,0,1-3.952,4.059,30.383,30.383,0,0,1,.4-3.941c.558-6.421-4.059-12.178-4.937-18.563-.261-1.7-.226-3.43-.487-5.127-1-6.2-5.673-11.074-10.362-15.24-.855-.771-3.8-2.991-3.727-4.427a5.637,5.637,0,0,0,2.576.926c2.148,0,2.184-1.958,4.581-1.329,1.84.51,3.656,2.54,4.748,4.059a42.088,42.088,0,0,1,3.952,7.786,82.49,82.49,0,0,0,13.246,20.771,3.786,3.786,0,0,1,.938,1.662Z" transform="translate(16.253 -49.049)" opacity="0.37" fill="url(#af)"/><path d="M208.47,192.071a.57.57,0,0,0,.4-.463c0-.273-.249-.51-.214-.771s.273-.38.5-.475a1.021,1.021,0,0,1,.463-.071.938.938,0,0,1,.617.487,1.97,1.97,0,0,1,.38.938,2.124,2.124,0,0,1-.807,1.65,2.207,2.207,0,0,1-.961.57,1.116,1.116,0,0,1-1.033-.249,1.187,1.187,0,0,1-.261-.427,1.389,1.389,0,0,1-.095-.653C207.568,191.928,208.007,192.225,208.47,192.071Z" transform="translate(36.814 -57.275)" opacity="0.37" fill="url(#ag)"/><path d="M312.608,189.522a2.872,2.872,0,0,0-1.852,1.246,1.875,1.875,0,0,0,.095,2.148,2.706,2.706,0,0,0,1.436.76,6.849,6.849,0,0,0,2.647.095,2.184,2.184,0,0,0,1.282-.593,1.828,1.828,0,0,0,.154-2.03,3.169,3.169,0,0,0-3.762-1.626Z" transform="translate(56.065 -57.444)" fill="url(#ah)"/><path d="M311.544,190.674a1.187,1.187,0,0,0-.261,1.46,2.065,2.065,0,0,0,1.828.89c.617,0,1.472-.083,1.78-.712.19-.4-.083-.593-.415-.771a7.122,7.122,0,0,1-1.329-.8A1.187,1.187,0,0,0,311.544,190.674Z" transform="translate(56.191 -57.255)" opacity="0.37" fill="url(#ai)"/><path d="M225.426,162.18a10.172,10.172,0,0,1,.119,6.991c-.665,2.279-1.757,4.427-2.5,6.682-1.65,4.985-1.674,10.528-4.249,15.109a.93.93,0,0,1-1.353.534c-5.08-1.792-12.154-5.78-14.551-10.919-1.294-2.789,1.958-4.213,3.917-5.673q4.308-3.228,8.747-6.267C216.358,168.091,225.473,162.287,225.426,162.18Z" transform="translate(35.905 -62.528)" fill="#e4572e"/><path d="M450.671,182.838c2.03,1.187,4.546,1.187,6.908,1.187s4.914.095,6.789,1.531c-.356-3.395-1.923-6.967-5.009-8.427a10.136,10.136,0,0,0-7.121-.214,8.83,8.83,0,0,0-4.748,2.789c-.736.949-.712,1.187.32,1.567A16.927,16.927,0,0,1,450.671,182.838Z" transform="translate(81.579 -59.876)" fill="#606161"/><path d="M455.483,176.853a12.379,12.379,0,0,1,10.16,6.136,8.818,8.818,0,0,0-5.044-7.869,16.059,16.059,0,0,0-9.649-1.187,11.335,11.335,0,0,0-6.3,2.564c-2.955,2.777-2.849,7.94-.19,11,.534,0,.712-.712.724-1.258,0-3.169-.178-4.807,2.5-6.848A12.332,12.332,0,0,1,455.483,176.853Z" transform="translate(80.732 -60.383)" fill="#e4572e"/><g transform="translate(214.4 9.179)" opacity="0.24"><path d="M186.751,109.755a1.887,1.887,0,0,0-.724.605,1.757,1.757,0,0,0,.178,1.579,6.1,6.1,0,0,0,1.294,1.923,2.587,2.587,0,0,0,2.125.724,3.644,3.644,0,0,0,1.389-.653l6.089-3.846a.712.712,0,0,0,.356-.368.8.8,0,0,0,0-.4c-.949-2.837-.866-4.308-3.952-2.955A69.017,69.017,0,0,0,186.751,109.755Z" transform="translate(-181.612 -82.235)" fill="#e4572e"/><path d="M232.03,110.591l-4.748-3.086a2.9,2.9,0,0,0-1.863-.665,2.944,2.944,0,0,0-1.567,1.044l-5.009,5.222a1.947,1.947,0,0,0-.724,1.424,1.863,1.863,0,0,0,.677,1.056,48.664,48.664,0,0,0,8.51,6.492,15.893,15.893,0,0,0,5.068-10.991" transform="translate(-175.594 -82.05)" fill="#e4572e"/><path d="M210.976,99.641l-3.228,2.6a.89.89,0,0,0-.427.593.938.938,0,0,0,.261.582,20.066,20.066,0,0,0,1.674,1.8,1.032,1.032,0,0,0,.415.261.783.783,0,0,0,.546-.166A3.764,3.764,0,0,0,210.3,99" transform="translate(-177.612 -83.515)" fill="#e4572e"/><path d="M222.944,100.626a2.469,2.469,0,0,0-1.792-.107,1.341,1.341,0,0,0-.89,1.448,1.757,1.757,0,0,0,.558.819,3.181,3.181,0,0,0,2.006.76.534.534,0,0,0,.356-.083.605.605,0,0,0,.166-.451,4.748,4.748,0,0,0-.463-2.208" transform="translate(-175.196 -83.254)" fill="#e4572e"/><path d="M233.185,93.024a1.187,1.187,0,0,0-.439-.154,1.033,1.033,0,0,0-.558.249c-.534.38-1.116.866-1.128,1.519a1.911,1.911,0,0,0,.225.807,16.865,16.865,0,0,0,1.033,2.006.522.522,0,0,0,.19.2.558.558,0,0,0,.309,0C235.938,96.585,236.021,94.65,233.185,93.024Z" transform="translate(-173.175 -84.661)" fill="#e4572e"/><path d="M241.534,103.658a7.644,7.644,0,0,0-2.6,0,2.647,2.647,0,0,0-1.662.76,1.187,1.187,0,0,0,0,1.662,1.8,1.8,0,0,0,1.187.2l2.671-.19a3.881,3.881,0,0,0,0-2.267" transform="translate(-172.077 -82.666)" fill="#e4572e"/><path d="M236.406,116.294a.166.166,0,0,0,.095.083h.119l.938-.534a1.187,1.187,0,0,0,.344-.273c.19-.273,0-.641-.095-.938a14.017,14.017,0,0,0-1.9-2.8.617.617,0,0,0-.32-.237.594.594,0,0,0-.32,0,9.995,9.995,0,0,0-1.436.558C234.127,113.564,235.575,115.083,236.406,116.294Z" transform="translate(-172.658 -81.166)" fill="#e4572e"/><path d="M199.491,95.341l-.641,3.311h1.626a.249.249,0,0,0,.2,0,.261.261,0,0,0,.071-.166l.427-3.976a10.86,10.86,0,0,0-2.006.7" transform="translate(-179.195 -84.355)" fill="#e4572e"/><path d="M202.462,117.887a.356.356,0,0,1,.119.226.368.368,0,0,1-.142.273,4.439,4.439,0,0,1-3.561,1.187,2.374,2.374,0,0,1-1.555-.7c-1.021-1.187-1.638-4.558.249-5.317S201.477,116.724,202.462,117.887Z" transform="translate(-179.662 -80.813)" fill="#e4572e"/><path d="M212.24,113.143l-1.97,2.694,1.128.665a.582.582,0,0,0,.38.119.593.593,0,0,0,.356-.285l.831-1.187a1.864,1.864,0,0,0,.38-.748c.095-.748-.724-1.187-1.412-1.531" transform="translate(-177.061 -80.923)" fill="#e4572e"/><path d="M182.373,96.273a15.691,15.691,0,0,0,1.4,3.679,6.789,6.789,0,0,1,2.516-.451c-.3-1.009-.641-2.006-1.021-2.991-.083-.19-.178-.4-.38-.475a.712.712,0,0,0-.439,0l-2.16.7" transform="translate(-182.29 -84.076)" fill="#e4572e"/><path d="M214.012,89.415c0-.059,3.751-2.113,1.614-3.371-.617-.356-1.507.415-1.84.961a2.03,2.03,0,0,0,.225,2.409Z" transform="translate(-176.459 -85.954)" fill="#e4572e"/></g><g transform="translate(214.4 9.179)" opacity="0.24"><path d="M186.751,109.755a1.887,1.887,0,0,0-.724.605,1.757,1.757,0,0,0,.178,1.579,6.1,6.1,0,0,0,1.294,1.923,2.587,2.587,0,0,0,2.125.724,3.644,3.644,0,0,0,1.389-.653l6.089-3.846a.712.712,0,0,0,.356-.368.8.8,0,0,0,0-.4c-.949-2.837-.866-4.308-3.952-2.955A69.017,69.017,0,0,0,186.751,109.755Z" transform="translate(-181.612 -82.235)" fill="#e4572e"/><path d="M232.03,110.591l-4.748-3.086a2.9,2.9,0,0,0-1.863-.665,2.944,2.944,0,0,0-1.567,1.044l-5.009,5.222a1.947,1.947,0,0,0-.724,1.424,1.863,1.863,0,0,0,.677,1.056,48.664,48.664,0,0,0,8.51,6.492,15.893,15.893,0,0,0,5.068-10.991" transform="translate(-175.594 -82.05)" fill="#e4572e"/><path d="M210.976,99.641l-3.228,2.6a.89.89,0,0,0-.427.593.938.938,0,0,0,.261.582,20.066,20.066,0,0,0,1.674,1.8,1.032,1.032,0,0,0,.415.261.783.783,0,0,0,.546-.166A3.764,3.764,0,0,0,210.3,99" transform="translate(-177.612 -83.515)" fill="#e4572e"/><path d="M222.944,100.626a2.469,2.469,0,0,0-1.792-.107,1.341,1.341,0,0,0-.89,1.448,1.757,1.757,0,0,0,.558.819,3.181,3.181,0,0,0,2.006.76.534.534,0,0,0,.356-.083.605.605,0,0,0,.166-.451,4.748,4.748,0,0,0-.463-2.208" transform="translate(-175.196 -83.254)" fill="#e4572e"/><path d="M233.185,93.024a1.187,1.187,0,0,0-.439-.154,1.033,1.033,0,0,0-.558.249c-.534.38-1.116.866-1.128,1.519a1.911,1.911,0,0,0,.225.807,16.865,16.865,0,0,0,1.033,2.006.522.522,0,0,0,.19.2.558.558,0,0,0,.309,0C235.938,96.585,236.021,94.65,233.185,93.024Z" transform="translate(-173.175 -84.661)" fill="#e4572e"/><path d="M241.534,103.658a7.644,7.644,0,0,0-2.6,0,2.647,2.647,0,0,0-1.662.76,1.187,1.187,0,0,0,0,1.662,1.8,1.8,0,0,0,1.187.2l2.671-.19a3.881,3.881,0,0,0,0-2.267" transform="translate(-172.077 -82.666)" fill="#e4572e"/><path d="M236.406,116.294a.166.166,0,0,0,.095.083h.119l.938-.534a1.187,1.187,0,0,0,.344-.273c.19-.273,0-.641-.095-.938a14.017,14.017,0,0,0-1.9-2.8.617.617,0,0,0-.32-.237.594.594,0,0,0-.32,0,9.995,9.995,0,0,0-1.436.558C234.127,113.564,235.575,115.083,236.406,116.294Z" transform="translate(-172.658 -81.166)" fill="#e4572e"/><path d="M199.491,95.341l-.641,3.311h1.626a.249.249,0,0,0,.2,0,.261.261,0,0,0,.071-.166l.427-3.976a10.86,10.86,0,0,0-2.006.7" transform="translate(-179.195 -84.355)" fill="#e4572e"/><path d="M202.462,117.887a.356.356,0,0,1,.119.226.368.368,0,0,1-.142.273,4.439,4.439,0,0,1-3.561,1.187,2.374,2.374,0,0,1-1.555-.7c-1.021-1.187-1.638-4.558.249-5.317S201.477,116.724,202.462,117.887Z" transform="translate(-179.662 -80.813)" fill="#e4572e"/><path d="M212.24,113.143l-1.97,2.694,1.128.665a.582.582,0,0,0,.38.119.593.593,0,0,0,.356-.285l.831-1.187a1.864,1.864,0,0,0,.38-.748c.095-.748-.724-1.187-1.412-1.531" transform="translate(-177.061 -80.923)" fill="#e4572e"/><path d="M182.373,96.273a15.691,15.691,0,0,0,1.4,3.679,6.789,6.789,0,0,1,2.516-.451c-.3-1.009-.641-2.006-1.021-2.991-.083-.19-.178-.4-.38-.475a.712.712,0,0,0-.439,0l-2.16.7" transform="translate(-182.29 -84.076)" fill="#e4572e"/><path d="M214.012,89.415c0-.059,3.751-2.113,1.614-3.371-.617-.356-1.507.415-1.84.961a2.03,2.03,0,0,0,.225,2.409Z" transform="translate(-176.459 -85.954)" fill="#e4572e"/></g><g transform="translate(442.96 37.577)" opacity="0.24"><path d="M379.321,133.674a1.922,1.922,0,0,0-.724.617,1.757,1.757,0,0,0,.178,1.579,6.243,6.243,0,0,0,1.294,1.911,2.611,2.611,0,0,0,2.125.736,4.035,4.035,0,0,0,1.389-.653l6.089-3.857a.712.712,0,0,0,.356-.368.653.653,0,0,0,0-.392c-.949-2.837-.866-4.32-3.952-2.967A60.834,60.834,0,0,0,379.321,133.674Z" transform="translate(-374.182 -106.161)" fill="#e4572e"/><path d="M424.61,134.589l-4.748-3.074A2.825,2.825,0,0,0,418,130.85a2.86,2.86,0,0,0-1.567,1.033l-5.009,5.234a1.911,1.911,0,0,0-.724,1.424,1.816,1.816,0,0,0,.688,1.056,47.475,47.475,0,0,0,8.5,6.48,15.893,15.893,0,0,0,5.068-10.991" transform="translate(-368.162 -105.96)" fill="#e4572e"/><path d="M403.576,123.567l-3.228,2.6a.926.926,0,0,0-.427.593.867.867,0,0,0,.273.57,17.108,17.108,0,0,0,1.662,1.8.653.653,0,0,0,.961.107,3.739,3.739,0,0,0,.083-6.291" transform="translate(-370.177 -107.436)" fill="#e4572e"/><path d="M415.526,124.556a2.576,2.576,0,0,0-1.8-.119,1.353,1.353,0,0,0-.89,1.448,1.638,1.638,0,0,0,.558.819,3.264,3.264,0,0,0,2.018.8.594.594,0,0,0,.356-.083.605.605,0,0,0,.166-.451,4.641,4.641,0,0,0-.463-2.219" transform="translate(-367.765 -107.179)" fill="#e4572e"/><path d="M425.755,116.944a.891.891,0,0,0-.439-.154,1.056,1.056,0,0,0-.558.237c-.534.392-1.116.866-1.128,1.531a2.018,2.018,0,0,0,.225.807,15.857,15.857,0,0,0,1.033,1.994.451.451,0,0,0,.19.2.4.4,0,0,0,.309,0C428.508,120.481,428.591,118.582,425.755,116.944Z" transform="translate(-365.745 -108.588)" fill="#e4572e"/><path d="M434.105,127.587a7.965,7.965,0,0,0-2.6,0,2.706,2.706,0,0,0-1.662.76,1.187,1.187,0,0,0,0,1.674,1.875,1.875,0,0,0,1.187.2l2.671-.2a3.881,3.881,0,0,0,0-2.267" transform="translate(-364.648 -106.59)" fill="#e4572e"/><path d="M428.954,140.223a.166.166,0,0,0,.095.083.154.154,0,0,0,.119,0l.938-.534a.867.867,0,0,0,.344-.273c.19-.261,0-.629-.095-.926a13.612,13.612,0,0,0-1.9-2.813.712.712,0,0,0-.32-.237.772.772,0,0,0-.321,0,9.308,9.308,0,0,0-1.424.546C426.7,137.481,428.158,139.012,428.954,140.223Z" transform="translate(-365.229 -105.09)" fill="#e4572e"/><path d="M392.1,119.278l-.641,3.264h1.626a.285.285,0,0,0,.2,0,.332.332,0,0,0,.071-.178l.427-3.964a9.353,9.353,0,0,0-2.006.7" transform="translate(-371.758 -108.287)" fill="#e4572e"/><path d="M395.034,141.805a.487.487,0,0,1,.131.225.451.451,0,0,1-.154.285,4.427,4.427,0,0,1-3.561,1.187,2.374,2.374,0,0,1-1.555-.7c-1.033-1.187-1.65-4.57.237-5.317S394.049,140.654,395.034,141.805Z" transform="translate(-372.233 -104.738)" fill="#e4572e"/><path d="M404.81,137.043l-1.97,2.706,1.187.665a.677.677,0,0,0,.368.119.582.582,0,0,0,.356-.3l.831-1.187a1.912,1.912,0,0,0,.38-.76c.095-.736-.724-1.187-1.4-1.519" transform="translate(-369.631 -104.854)" fill="#e4572e"/><path d="M374.943,120.2a15.893,15.893,0,0,0,1.4,3.679,7.122,7.122,0,0,1,2.528-.463c-.309-1.009-.653-2.006-1.033-2.979-.083-.2-.178-.415-.38-.475a.665.665,0,0,0-.427,0l-2.172.7" transform="translate(-374.86 -108.001)" fill="#e4572e"/><path d="M406.581,113.346c0-.071,3.751-2.125,1.614-3.371-.617-.368-1.507.4-1.84.961a2.053,2.053,0,0,0,.226,2.409Z" transform="translate(-369.028 -109.879)" fill="#e4572e"/></g><g transform="translate(373.005 36.192)" opacity="0.24"><path d="M320.39,132.515a1.353,1.353,0,0,0-.534,2.184,6.2,6.2,0,0,0,1.282,1.923,2.6,2.6,0,0,0,2.125.724,3.975,3.975,0,0,0,1.4-.653l6.077-3.857a.653.653,0,0,0,.356-.356.688.688,0,0,0,0-.4c-.95-2.837-.855-4.32-3.94-2.955A73.951,73.951,0,0,0,320.39,132.515Z" transform="translate(-315.251 -104.995)" fill="#e4572e"/><path d="M365.672,133.381l-4.748-3.086a2.944,2.944,0,0,0-1.863-.665,2.908,2.908,0,0,0-1.579,1.044l-5,5.222a1.923,1.923,0,0,0-.736,1.424,1.876,1.876,0,0,0,.688,1.056,47.475,47.475,0,0,0,8.5,6.48A15.893,15.893,0,0,0,366,133.879" transform="translate(-309.224 -104.804)" fill="#e4572e"/><path d="M344.576,122.4l-3.228,2.6a.926.926,0,0,0-.427.593.914.914,0,0,0,.273.582,19.806,19.806,0,0,0,1.662,1.8,1.069,1.069,0,0,0,.427.261.8.8,0,0,0,.534-.166,3.739,3.739,0,0,0,.083-6.291" transform="translate(-311.248 -106.271)" fill="#e4572e"/><path d="M356.584,123.386a2.5,2.5,0,0,0-1.8-.107,1.341,1.341,0,0,0-.878,1.448,1.65,1.65,0,0,0,.546.819,3.217,3.217,0,0,0,2.006.76.653.653,0,0,0,.368-.083.605.605,0,0,0,.154-.451,4.57,4.57,0,0,0-.463-2.208" transform="translate(-308.824 -106.013)" fill="#e4572e"/><path d="M366.822,115.774a.926.926,0,0,0-.427-.154,1,1,0,0,0-.558.249,2.385,2.385,0,0,0-1.187,1.519,1.959,1.959,0,0,0,.225.807,17.608,17.608,0,0,0,1.033,1.994.546.546,0,0,0,.19.214.463.463,0,0,0,.309,0C369.576,119.323,369.659,117.412,366.822,115.774Z" transform="translate(-306.813 -107.422)" fill="#e4572e"/><path d="M375.164,126.418a7.644,7.644,0,0,0-2.6,0,2.647,2.647,0,0,0-1.662.76,1.187,1.187,0,0,0,0,1.662,1.757,1.757,0,0,0,1.187.2l2.67-.19a3.822,3.822,0,0,0,0-2.279" transform="translate(-305.708 -105.425)" fill="#e4572e"/><path d="M370.014,139.052a.166.166,0,0,0,.095.083.154.154,0,0,0,.119,0l.949-.534a1.009,1.009,0,0,0,.332-.261.938.938,0,0,0-.095-.938,13.544,13.544,0,0,0-1.9-2.8.57.57,0,0,0-.32-.237.605.605,0,0,0-.32,0,9.344,9.344,0,0,0-1.424.558C367.759,136.31,369.218,137.841,370.014,139.052Z" transform="translate(-306.289 -103.923)" fill="#e4572e"/><path d="M333.1,118.138l-.641,3.264h1.626a.237.237,0,0,0,.214,0,.391.391,0,0,0,.059-.178l.427-3.964a10.862,10.862,0,0,0-2.006.7" transform="translate(-312.829 -107.115)" fill="#e4572e"/><path d="M336.1,140.7a.463.463,0,0,1,.119.226.38.38,0,0,1-.154.273,4.427,4.427,0,0,1-3.561,1.187,2.374,2.374,0,0,1-1.555-.7c-1.021-1.187-1.65-4.558.237-5.317S335.108,139.511,336.1,140.7Z" transform="translate(-313.293 -103.563)" fill="#e4572e"/><path d="M345.87,135.9,343.9,138.6l1.187.665a.534.534,0,0,0,.368.119.665.665,0,0,0,.368-.285l.819-1.187a1.709,1.709,0,0,0,.38-.76c.095-.736-.724-1.187-1.4-1.519" transform="translate(-310.691 -103.682)" fill="#e4572e"/><path d="M316.015,119.043a15.655,15.655,0,0,0,1.389,3.679,6.8,6.8,0,0,1,2.528-.451q-.463-1.507-1.033-2.991c-.071-.19-.178-.415-.38-.475a.665.665,0,0,0-.427,0l-2.172.7" transform="translate(-315.92 -106.833)" fill="#e4572e"/><path d="M347.641,112.175c0-.071,3.762-2.125,1.626-3.371-.617-.356-1.519.4-1.852.961a2.053,2.053,0,0,0,.226,2.409Z" transform="translate(-310.088 -108.713)" fill="#e4572e"/></g><path d="M390.22,150.266a1.685,1.685,0,0,0-.712.605,1.757,1.757,0,0,0,.178,1.579,6.006,6.006,0,0,0,1.282,1.911,2.611,2.611,0,0,0,2.125.736,4.19,4.19,0,0,0,1.4-.653l6.089-3.857a.736.736,0,0,0,.344-.368.747.747,0,0,0,0-.392c-.961-2.837-.866-4.32-3.952-2.967A70.472,70.472,0,0,0,390.22,150.266Z" transform="translate(70.817 -65.486)" fill="#fff"/><path d="M435.512,151.119l-4.748-3.074a2.943,2.943,0,0,0-1.863-.665,2.884,2.884,0,0,0-1.579,1.033l-5,5.234a1.947,1.947,0,0,0-.736,1.424,1.875,1.875,0,0,0,.688,1.056,47.477,47.477,0,0,0,8.5,6.48,15.893,15.893,0,0,0,5.068-10.991" transform="translate(76.834 -65.294)" fill="#fff"/><path d="M414.444,140.147l-3.228,2.6a.914.914,0,0,0-.415.593.842.842,0,0,0,.261.582,18.23,18.23,0,0,0,1.662,1.792.854.854,0,0,0,.427.261.783.783,0,0,0,.534-.154,3.751,3.751,0,0,0,.095-6.291" transform="translate(74.817 -66.761)" fill="#fff"/><path d="M426.425,141.136a2.5,2.5,0,0,0-1.8-.107,1.329,1.329,0,0,0-.878,1.448,1.567,1.567,0,0,0,.546.807,3.228,3.228,0,0,0,2.006.771.653.653,0,0,0,.368-.083.558.558,0,0,0,.154-.451,4.747,4.747,0,0,0-.451-2.219" transform="translate(77.233 -66.503)" fill="#fff"/><path d="M436.653,133.524a.819.819,0,0,0-.427-.154.985.985,0,0,0-.558.237c-.534.392-1.128.866-1.128,1.531a1.947,1.947,0,0,0,.214.807,19.794,19.794,0,0,0,1.033,1.994.451.451,0,0,0,.19.2.4.4,0,0,0,.309,0C439.418,137.061,439.489,135.162,436.653,133.524Z" transform="translate(79.254 -67.912)" fill="#fff"/><path d="M445.005,144.167a7.952,7.952,0,0,0-2.6,0,2.706,2.706,0,0,0-1.662.76,1.187,1.187,0,0,0,0,1.674,1.851,1.851,0,0,0,1.187.2l2.671-.19a3.917,3.917,0,0,0,0-2.279" transform="translate(80.349 -65.915)" fill="#fff"/><path d="M439.854,156.8a.214.214,0,0,0,.095.083.142.142,0,0,0,.119,0l.949-.534a.724.724,0,0,0,.237-1.187,13.612,13.612,0,0,0-1.9-2.813.712.712,0,0,0-.321-.237.771.771,0,0,0-.32.059,9.8,9.8,0,0,0-1.424.546C437.6,154.057,439.058,155.54,439.854,156.8Z" transform="translate(79.768 -64.41)" fill="#fff"/><path d="M402.959,135.858l-.629,3.264h1.614a.332.332,0,0,0,.214,0,.321.321,0,0,0,.059-.178l.427-3.964a9.354,9.354,0,0,0-2.006.7" transform="translate(73.234 -67.612)" fill="#fff"/><path d="M405.964,158.385a.557.557,0,0,1,.119.237.38.38,0,0,1-.154.273,4.427,4.427,0,0,1-3.561,1.187,2.374,2.374,0,0,1-1.555-.7c-1.021-1.187-1.638-4.57.237-5.317S404.943,157.234,405.964,158.385Z" transform="translate(72.769 -64.062)" fill="#fff"/><path d="M415.708,153.634l-1.958,2.706,1.128.665a.712.712,0,0,0,.368.119.641.641,0,0,0,.368-.3l.819-1.128a1.769,1.769,0,0,0,.38-.76c.095-.736-.712-1.187-1.4-1.519" transform="translate(75.368 -64.165)" fill="#fff"/><path d="M385.855,136.781a15.855,15.855,0,0,0,1.389,3.679,7.121,7.121,0,0,1,2.528-.463c-.309-1.009-.641-2.006-1.033-2.979a.546.546,0,0,0-.807-.427l-2.172.7" transform="translate(70.137 -67.323)" fill="#fff"/><path d="M417.481,129.926c0-.071,3.762-2.125,1.626-3.371-.617-.368-1.507.4-1.84.961a2.03,2.03,0,0,0,.214,2.409Z" transform="translate(75.97 -69.204)" fill="#fff"/><path d="M264.661,117.475a1.816,1.816,0,0,0-.724.605,1.78,1.78,0,0,0,.178,1.59,6.006,6.006,0,0,0,1.282,1.911,2.6,2.6,0,0,0,2.125.724,3.94,3.94,0,0,0,1.4-.641l6.089-3.857a.736.736,0,0,0,.344-.368.747.747,0,0,0,0-.392c-.961-2.849-.866-4.32-3.952-2.967A73.749,73.749,0,0,0,264.661,117.475Z" transform="translate(47.349 -71.613)" fill="#fff"/><path d="M333.792,149.521l-4.748-3.086a2.944,2.944,0,0,0-1.863-.665,2.979,2.979,0,0,0-1.579,1.044l-5,5.222a1.923,1.923,0,0,0-.736,1.424,1.946,1.946,0,0,0,.688,1.068,48.592,48.592,0,0,0,8.5,6.48,15.893,15.893,0,0,0,5.068-10.991" transform="translate(57.823 -65.595)" fill="#fff"/><path d="M309.474,119.1l-3.228,2.6a.914.914,0,0,0-.415.593.819.819,0,0,0,.261.582,18.355,18.355,0,0,0,1.662,1.8,1.068,1.068,0,0,0,.427.261.736.736,0,0,0,.534-.166,3.8,3.8,0,0,0,1.757-3.122,3.846,3.846,0,0,0-1.662-3.169" transform="translate(55.199 -70.695)" fill="#fff"/><path d="M327.034,110.936a2.5,2.5,0,0,0-1.8-.107,1.341,1.341,0,0,0-.878,1.448,1.519,1.519,0,0,0,.558.807,3.169,3.169,0,0,0,1.994.771.629.629,0,0,0,.368-.083.605.605,0,0,0,.166-.451,4.748,4.748,0,0,0-.463-2.219" transform="translate(58.658 -72.148)" fill="#fff"/><path d="M337.272,103.324a.819.819,0,0,0-.427-.154,1.021,1.021,0,0,0-.558.237c-.534.392-1.187.866-1.187,1.531a2.148,2.148,0,0,0,.214.807,17.686,17.686,0,0,0,1.044,1.994.392.392,0,0,0,.19.2.368.368,0,0,0,.3,0C340.037,106.861,340.121,104.962,337.272,103.324Z" transform="translate(60.669 -73.557)" fill="#fff"/><path d="M378.4,112.847a7.953,7.953,0,0,0-2.6,0,2.647,2.647,0,0,0-1.662.76,1.187,1.187,0,0,0,0,1.662,1.78,1.78,0,0,0,1.187.214l2.67-.2a3.881,3.881,0,0,0,0-2.267" transform="translate(67.903 -71.768)" fill="#fff"/><path d="M353.134,123.463a.213.213,0,0,0,.095.083.19.19,0,0,0,.119,0l.95-.534a1.081,1.081,0,0,0,.332-.273.938.938,0,0,0-.095-.938,13.542,13.542,0,0,0-1.9-2.8.57.57,0,0,0-.32-.237.605.605,0,0,0-.32,0,9.343,9.343,0,0,0-1.424.558C350.879,120.734,352.338,122.253,353.134,123.463Z" transform="translate(63.561 -70.646)" fill="#fff"/><path d="M303.569,105.658l-.629,3.264h1.626a.285.285,0,0,0,.2,0,.249.249,0,0,0,0-.178l.439-3.964a10.16,10.16,0,0,0-2.018.7" transform="translate(54.659 -73.256)" fill="#fff"/><path d="M308.8,151.537a.32.32,0,0,1,.119.225.344.344,0,0,1-.154.273,4.4,4.4,0,0,1-3.561,1.187,2.374,2.374,0,0,1-1.555-.7c-1.021-1.187-1.638-4.558.237-5.317S307.807,150.374,308.8,151.537Z" transform="translate(54.611 -65.345)" fill="#fff"/><path d="M270.42,135.671l-1.97,2.694,1.187.665a.451.451,0,0,0,.724-.166l.831-1.187a1.793,1.793,0,0,0,.38-.748c.095-.736-.724-1.187-1.4-1.519" transform="translate(48.213 -67.531)" fill="#fff"/><path d="M286.463,106.583a15.893,15.893,0,0,0,1.4,3.679,7,7,0,0,1,2.516-.463c-.3-1.009-.641-2.006-1.033-2.979-.071-.2-.166-.415-.368-.475a.712.712,0,0,0-.439,0l-2.16.7" transform="translate(51.564 -72.97)" fill="#fff"/><path d="M318.082,99.726c0-.071,3.751-2.125,1.614-3.371-.617-.368-1.507.4-1.84.961a2.018,2.018,0,0,0,.225,2.409Z" transform="translate(57.391 -74.848)" fill="#fff"/><path d="M115.85,128.285a1.887,1.887,0,0,0-.724.605,1.8,1.8,0,0,0,.19,1.579,6.065,6.065,0,0,0,1.282,1.923,2.6,2.6,0,0,0,2.125.724,3.941,3.941,0,0,0,1.4-.641l6.077-3.857a.712.712,0,0,0,.356-.368.641.641,0,0,0,0-.392c-.95-2.849-.866-4.32-3.952-2.967A69.023,69.023,0,0,0,115.85,128.285Z" transform="translate(19.539 -69.592)" fill="#fff"/><path d="M184.98,160.322l-4.748-3.074a2.148,2.148,0,0,0-3.43.38l-5.009,5.222a1.946,1.946,0,0,0-.724,1.424,1.863,1.863,0,0,0,.676,1.056,47.977,47.977,0,0,0,8.51,6.48,15.893,15.893,0,0,0,5.068-10.979" transform="translate(30.014 -63.578)" fill="#fff"/><path d="M160.676,129.86l-3.228,2.647a.926.926,0,0,0-.427.593.914.914,0,0,0,.273.582,18.23,18.23,0,0,0,1.662,1.792.914.914,0,0,0,.427.273.89.89,0,0,0,.534-.166A3.739,3.739,0,0,0,160,129.29" transform="translate(27.388 -68.675)" fill="#fff"/><path d="M178.234,121.746a2.564,2.564,0,0,0-1.8-.119,1.341,1.341,0,0,0-.878,1.448,1.507,1.507,0,0,0,.558.819,3.157,3.157,0,0,0,1.994.76.5.5,0,0,0,.368-.083.534.534,0,0,0,.154-.439,4.747,4.747,0,0,0-.451-2.219" transform="translate(30.849 -70.128)" fill="#fff"/><path d="M188.472,114.134a.819.819,0,0,0-.427-.154.985.985,0,0,0-.558.237c-.534.38-1.187.866-1.187,1.519a1.993,1.993,0,0,0,.214.819,19.772,19.772,0,0,0,1.033,1.994.451.451,0,0,0,.19.2.463.463,0,0,0,.309,0C191.237,117.671,191.309,115.772,188.472,114.134Z" transform="translate(32.86 -71.536)" fill="#fff"/><path d="M229.6,123.657a7.964,7.964,0,0,0-2.6,0,2.647,2.647,0,0,0-1.662.76,1.187,1.187,0,0,0,0,1.662,1.7,1.7,0,0,0,1.187.2l2.671-.19a3.881,3.881,0,0,0,0-2.267" transform="translate(40.093 -69.748)" fill="#fff"/><path d="M204.334,134.272a.166.166,0,0,0,.095.083.154.154,0,0,0,.119,0l.938-.534a.949.949,0,0,0,.344-.261c.19-.273,0-.641-.095-.938a13.613,13.613,0,0,0-1.9-2.813.617.617,0,0,0-.32-.226.593.593,0,0,0-.32,0,9.3,9.3,0,0,0-1.424.546C202.043,131.53,203.538,133.061,204.334,134.272Z" transform="translate(35.751 -68.624)" fill="#fff"/><path d="M154.769,116.468l-.629,3.264h1.614a.332.332,0,0,0,.214,0,.32.32,0,0,0,0-.178l.427-3.964a9.351,9.351,0,0,0-2.006.7" transform="translate(26.849 -71.235)" fill="#fff"/><path d="M159.965,162.335a.593.593,0,0,1,.119.226.4.4,0,0,1-.154.285,4.427,4.427,0,0,1-3.561,1.187,2.374,2.374,0,0,1-1.555-.7c-1.021-1.187-1.65-4.57.237-5.317S159.015,161.184,159.965,162.335Z" transform="translate(26.793 -63.324)" fill="#fff"/><path d="M121.62,146.483l-1.97,2.694,1.128.665a.558.558,0,0,0,.38.119.593.593,0,0,0,.356-.285l.831-1.187a1.7,1.7,0,0,0,.368-.748c.095-.748-.712-1.187-1.4-1.531" transform="translate(20.404 -65.513)" fill="#fff"/><path d="M137.665,117.38a15.736,15.736,0,0,0,1.389,3.691,7.121,7.121,0,0,1,2.528-.463c-.309-1.009-.641-2.006-1.033-2.979a.677.677,0,0,0-.38-.475.759.759,0,0,0-.427,0l-2.172.712" transform="translate(23.753 -70.949)" fill="#fff"/><path d="M169.291,110.546c0-.071,3.762-2.125,1.626-3.371-.617-.368-1.507.4-1.84.961a2.03,2.03,0,0,0,.214,2.409Z" transform="translate(29.585 -72.826)" fill="#fff"/><g transform="translate(131.674 49.161)" opacity="0.24"><path d="M114.325,122.706a.942.942,0,0,0-.807,1.365,4.332,4.332,0,0,0,.475,1.543,1.852,1.852,0,0,0,1.282.926,3.05,3.05,0,0,0,1.08-.154l4.866-1.377a.475.475,0,0,0,.309-.178.439.439,0,0,0,0-.273c-.071-2.1.285-3.086-2.065-2.789a51.033,51.033,0,0,0-5.139.938Z" transform="translate(-112.426 -119.252)" fill="#e4572e"/><path d="M154.5,158.256l-2.564-3.027a2.006,2.006,0,0,0-1.116-.819,2.077,2.077,0,0,0-1.27.38l-4.427,2.516c-.332.19-.7.427-.771.807a1.27,1.27,0,0,0,.249.855,33.117,33.117,0,0,0,4.415,6.077,11.145,11.145,0,0,0,5.6-6.374" transform="translate(-106.655 -113.142)" fill="#e4572e"/><path d="M144.142,132.986l-2.694,1.1a.487.487,0,0,0-.344.76,13.267,13.267,0,0,0,.76,1.543.57.57,0,0,0,.237.261.558.558,0,0,0,.392,0,2.623,2.623,0,0,0,1.317-4.213" transform="translate(-107.277 -117.248)" fill="#e4572e"/><path d="M157.527,131.069a1.721,1.721,0,0,0-1.187-.439.961.961,0,0,0-.89.8,1.187,1.187,0,0,0,.214.665,2.208,2.208,0,0,0,1.187.914.392.392,0,0,0,.261,0c.107,0,.154-.154.19-.261a3.288,3.288,0,0,0,.142-1.59" transform="translate(-104.58 -117.586)" fill="#e4572e"/><path d="M165.972,128.035a.641.641,0,0,0-.261-.19.665.665,0,0,0-.427,0c-.439.154-.926.356-1.068.8a1.425,1.425,0,0,0,0,.593,11.582,11.582,0,0,0,.3,1.555.273.273,0,0,0,.083.166.32.32,0,0,0,.214,0C167.111,130.967,167.526,129.709,165.972,128.035Z" transform="translate(-102.948 -118.113)" fill="#e4572e"/><path d="M191.75,142.712a5.638,5.638,0,0,0-1.745-.546,1.875,1.875,0,0,0-1.27.178.831.831,0,0,0-.309,1.128,1.341,1.341,0,0,0,.783.392l1.84.4a2.8,2.8,0,0,0,.463-1.531" transform="translate(-98.437 -115.437)" fill="#e4572e"/><path d="M172.568,144.789a.083.083,0,0,0,0,.071h.095l.736-.166a.677.677,0,0,0,.285-.107.665.665,0,0,0,.119-.653,9.5,9.5,0,0,0-.712-2.267.4.4,0,0,0-.166-.226.475.475,0,0,0-.226,0,7.783,7.783,0,0,0-1.068.083,10.86,10.86,0,0,0,.938,3.264Z" transform="translate(-101.556 -115.568)" fill="#e4572e"/><path d="M142.87,122.793l-1.08,2.077,1.08.356a.226.226,0,0,0,.154,0,.178.178,0,0,0,.071-.107l1.092-2.587a7.894,7.894,0,0,0-1.5.071" transform="translate(-107.133 -119.101)" fill="#e4572e"/><path d="M137.137,154.764a.32.32,0,0,1,0,.178c0,.083-.095.119-.166.154a3.11,3.11,0,0,1-2.635.119,1.65,1.65,0,0,1-.914-.783c-.451-.985-.178-3.406,1.187-3.561S136.7,153.791,137.137,154.764Z" transform="translate(-108.734 -113.804)" fill="#e4572e"/><path d="M114.465,136.342l-1.875,1.424.629.677a.451.451,0,0,0,.226.154.392.392,0,0,0,.309-.119l.783-.605a1.258,1.258,0,0,0,.4-.427c.214-.475-.237-.973-.641-1.306" transform="translate(-112.59 -116.556)" fill="#e4572e"/><path d="M131.026,120a11.394,11.394,0,0,0,.2,2.765,4.819,4.819,0,0,1,1.792.2,17.266,17.266,0,0,0-.095-2.219.522.522,0,0,0-.154-.4.451.451,0,0,0-.309,0h-1.6" transform="translate(-109.175 -119.572)" fill="#e4572e"/><path d="M153.791,121.741s2.967-.665,1.78-1.947c-.344-.368-1.1,0-1.436.285A1.424,1.424,0,0,0,153.791,121.741Z" transform="translate(-104.915 -119.64)" fill="#e4572e"/></g></g></svg>